<svg width="69" height="69" viewBox="0 0 69 69" fill="none" xmlns="http://www.w3.org/2000/svg">
<g filter="url(#filter0_d_415_6942)">
<path d="M9 32.5C9 29.1513 9.65958 25.8354 10.9411 22.7416C12.2226 19.6478 14.1009 16.8367 16.4688 14.4688C18.8367 12.1009 21.6478 10.2226 24.7416 8.94107C27.8354 7.65958 31.1513 7 34.5 7C37.8487 7 41.1646 7.65958 44.2584 8.94107C47.3522 10.2226 50.1633 12.1009 52.5312 14.4688C54.8991 16.8367 56.7774 19.6478 58.0589 22.7416C59.3404 25.8354 60 29.1513 60 32.5C60 39.263 57.3134 45.749 52.5312 50.5312C47.749 55.3134 41.263 58 34.5 58C27.737 58 21.251 55.3134 16.4688 50.5312C11.6866 45.749 9 39.263 9 32.5ZM34.5 19.75C33.9364 19.75 33.3959 19.9739 32.9974 20.3724C32.5989 20.7709 32.375 21.3114 32.375 21.875V30.375H23.875C23.3114 30.375 22.7709 30.5989 22.3724 30.9974C21.9739 31.3959 21.75 31.9364 21.75 32.5C21.75 33.0636 21.9739 33.6041 22.3724 34.0026C22.7709 34.4011 23.3114 34.625 23.875 34.625H32.375V43.125C32.375 43.6886 32.5989 44.2291 32.9974 44.6276C33.3959 45.0261 33.9364 45.25 34.5 45.25C35.0636 45.25 35.6041 45.0261 36.0026 44.6276C36.4011 44.2291 36.625 43.6886 36.625 43.125V34.625H45.125C45.6886 34.625 46.2291 34.4011 46.6276 34.0026C47.0261 33.6041 47.25 33.0636 47.25 32.5C47.25 31.9364 47.0261 31.3959 46.6276 30.9974C46.2291 30.5989 45.6886 30.375 45.125 30.375H36.625V21.875C36.625 21.3114 36.4011 20.7709 36.0026 20.3724C35.6041 19.9739 35.0636 19.75 34.5 19.75Z" fill="#009D4E"/>
</g>
<defs>
<filter id="filter0_d_415_6942" x="0" y="0" width="69" height="69" filterUnits="userSpaceOnUse" color-interpolation-filters="sRGB">
<feFlood flood-opacity="0" result="BackgroundImageFix"/>
<feColorMatrix in="SourceAlpha" type="matrix" values="0 0 0 0 0 0 0 0 0 0 0 0 0 0 0 0 0 0 127 0" result="hardAlpha"/>
<feOffset dy="2"/>
<feGaussianBlur stdDeviation="4.5"/>
<feComposite in2="hardAlpha" operator="out"/>
<feColorMatrix type="matrix" values="0 0 0 0 0 0 0 0 0 0 0 0 0 0 0 0 0 0 0.25 0"/>
<feBlend mode="normal" in2="BackgroundImageFix" result="effect1_dropShadow_415_6942"/>
<feBlend mode="normal" in="SourceGraphic" in2="effect1_dropShadow_415_6942" result="shape"/>
</filter>
</defs>
</svg>
