<svg width="14" height="12" viewBox="0 0 14 12" fill="none" xmlns="http://www.w3.org/2000/svg">
<path d="M11.6613 0.711684C11.8869 0.483371 12.1872 0.35715 12.4987 0.359656C12.8102 0.362161 13.1086 0.493197 13.331 0.725113C13.5533 0.957029 13.6822 1.27169 13.6905 1.60269C13.6987 1.93369 13.5856 2.25515 13.3751 2.49923L6.9842 10.9943C6.87431 11.1201 6.74167 11.2211 6.59423 11.2911C6.44678 11.3612 6.28756 11.399 6.12607 11.4022C5.96459 11.4053 5.80415 11.3739 5.65437 11.3096C5.50459 11.2454 5.36853 11.1497 5.25433 11.0283L1.01614 6.52375C0.89811 6.40685 0.803444 6.26589 0.737786 6.10927C0.672127 5.95265 0.636822 5.78358 0.633976 5.61214C0.63113 5.4407 0.660802 5.27041 0.721221 5.11142C0.78164 4.95244 0.871569 4.80801 0.985642 4.68677C1.09972 4.56553 1.2356 4.46994 1.38518 4.40573C1.53476 4.34151 1.69498 4.30997 1.85628 4.313C2.01758 4.31602 2.17666 4.35355 2.32401 4.42333C2.47137 4.49312 2.604 4.59374 2.71397 4.71918L6.06801 8.28235L11.6308 0.749138C11.6408 0.736031 11.6515 0.723527 11.6629 0.711684H11.6613Z" fill="#D81E05"/>
</svg>
