<svg width="53" height="53" viewBox="0 0 53 53" fill="none" xmlns="http://www.w3.org/2000/svg">
<path fill-rule="evenodd" clip-rule="evenodd" d="M26.1067 53.0009C25.4268 53.0009 24.747 53.0009 24.0672 53.0009C24.0044 52.8486 23.8668 52.9033 23.7586 52.893C22.7783 52.7981 21.8028 52.6605 20.8401 52.4558C10.1012 50.1722 1.86351 41.2759 0.271751 30.2684C0.189792 29.7018 0.226757 29.1134 0 28.5703C0 27.1901 0 25.8098 0 24.4297C0.150151 24.3659 0.0961073 24.2263 0.106304 24.1163C0.199607 23.1213 0.335228 22.1311 0.536874 21.1538C2.78672 10.2527 11.5504 1.89076 22.3944 0.274969C22.9524 0.191902 23.5322 0.229295 24.0672 -0.00088501C24.747 -0.00088501 25.4268 -0.00088501 26.1067 -0.00088501C26.1067 8.76162 26.1065 17.5241 26.1076 26.2865C26.1076 26.5796 26.1207 26.8725 26.1276 27.1656C26.1171 27.2075 26.1063 27.2494 26.0956 27.2916C25.2345 28.0715 24.356 28.833 23.5211 29.641C23.2015 29.9505 23.0429 29.8925 22.7609 29.6034C20.5741 27.3603 18.3663 25.1381 16.1758 22.8986C15.9321 22.6494 15.7947 22.5648 15.5059 22.8672C14.2877 24.1422 13.0461 25.3943 11.7967 26.6378C11.5536 26.8799 11.5757 27.0095 11.805 27.2415C15.4271 30.9056 19.0437 34.5756 22.6493 38.2565C22.9153 38.5282 23.0521 38.473 23.2937 38.2457C24.2149 37.3793 25.1567 36.5355 26.0908 35.6833C26.096 35.9589 26.1058 36.2345 26.1058 36.5101C26.1069 42.007 26.1067 47.5039 26.1067 53.0009Z" fill="#E8B500"/>
<path fill-rule="evenodd" clip-rule="evenodd" d="M26.1628 27.1655C26.1556 26.8724 26.1422 26.5795 26.1422 26.2864C26.141 17.5241 26.1413 8.7616 26.1413 -0.00088501C26.8406 -0.00088501 27.5402 -0.00088501 28.2395 -0.00088501C28.2707 0.109223 28.3634 0.0992606 28.4482 0.10159C29.3574 0.12682 30.2541 0.272898 31.1398 0.448994C37.6248 1.73795 42.9647 4.91945 47.115 9.99906C50.1171 13.673 51.9751 17.8602 52.7074 22.5331C52.8064 23.1649 52.7798 23.8163 52.9991 24.4297C52.9991 25.8446 52.9991 27.2592 52.9991 28.6739C52.8874 28.7044 52.899 28.796 52.8946 28.8798C52.8496 29.74 52.716 30.5914 52.5441 31.4323C51.2359 37.8306 48.0126 43.0998 42.8647 47.195C39.1412 50.1572 34.8974 51.9905 30.1616 52.713C29.5213 52.8107 28.8611 52.7844 28.2395 53.0009C27.5402 53.0009 26.8406 53.0009 26.1413 53.0009C26.1413 47.504 26.1414 42.007 26.1405 36.5101C26.1405 36.2345 26.1304 35.9589 26.125 35.6833C26.127 35.6571 26.1333 35.632 26.1439 35.6078C26.7047 35.1183 27.2713 34.6349 27.8256 34.1383C32.5845 29.8755 37.3385 25.6072 42.1053 21.3528C42.4079 21.0828 42.3765 20.9444 42.1197 20.6714C40.9083 19.3829 39.712 18.0798 38.5329 16.7623C38.2793 16.479 38.1462 16.4462 37.8472 16.7177C35.7008 18.6666 33.5365 20.596 31.3742 22.5274C29.6397 24.0763 27.9001 25.6195 26.1628 27.1655Z" fill="#E8B500" fill-opacity="0.6"/>
</svg>
