<svg width="49" height="56" viewBox="0 0 49 56" fill="none" xmlns="http://www.w3.org/2000/svg">
<path fill-rule="evenodd" clip-rule="evenodd" d="M48.511 55.2215C43.7838 55.2215 39.0626 55.2215 34.3354 55.2215C33.9681 54.9565 33.673 54.6494 33.8537 54.1496C34.0344 53.6558 34.4499 53.5775 34.9075 53.6076C35.0159 53.6136 35.1243 53.6076 35.2267 53.6076C39.0566 53.6076 42.8865 53.6076 46.7165 53.6076C46.9272 53.6076 47.132 53.6076 47.3548 53.6076C47.3548 39.3658 47.3548 25.1963 47.3548 11.0027C46.3732 11.0027 45.4218 11.0027 44.4282 11.0027C44.4282 11.2496 44.4282 11.4603 44.4282 11.6711C44.4282 18.777 44.4282 25.8828 44.4282 32.9886C44.4282 33.1332 44.4342 33.2777 44.4282 33.4162C44.4101 33.9642 44.103 34.3014 43.6333 34.3074C43.1575 34.3135 42.8384 33.9762 42.8203 33.4403C42.8143 33.2777 42.8203 33.1211 42.8203 32.9585C42.8203 24.3291 42.8203 15.7058 42.8203 7.07639C42.8203 6.86563 42.8203 6.66088 42.8203 6.44409C41.8147 6.44409 40.8752 6.44409 39.8696 6.44409C39.8696 6.7211 39.8696 6.968 39.8696 7.21489C39.8696 19.7645 39.8696 32.3082 39.8696 44.8578C39.8696 45.8755 39.6588 46.0923 38.6471 46.0923C29.6624 46.0923 20.6778 46.0923 11.6931 46.0923C11.4883 46.0923 11.2776 46.0923 11.0487 46.0923C11.0487 47.098 11.0487 48.0434 11.0487 49.0189C21.6352 49.0189 32.2037 49.0189 42.8203 49.0189C42.8203 48.7961 42.8203 48.6034 42.8203 48.4047C42.8203 44.7374 42.8203 41.064 42.8203 37.3967C42.8203 36.7523 43.0973 36.397 43.5971 36.385C44.121 36.3669 44.4282 36.7343 44.4282 37.4027C44.4282 38.9624 44.4282 40.516 44.4282 42.0757C44.4282 44.5808 44.4282 47.0859 44.4282 49.591C44.4282 50.3799 44.1632 50.6449 43.3683 50.6629C43.2057 50.6689 43.0431 50.6629 42.8866 50.6629C34.0464 50.6629 25.2002 50.6629 16.3601 50.6629C16.1192 50.6629 15.8783 50.6629 15.6374 50.6629C15.6374 51.6927 15.6374 52.6321 15.6374 53.6076C15.8904 53.6076 16.1011 53.6076 16.3119 53.6076C21.0933 53.6076 25.8687 53.6076 30.65 53.6016C31.1077 53.6016 31.5232 53.6558 31.7039 54.1436C31.8845 54.6434 31.5834 54.9505 31.2221 55.2155C25.6398 55.2155 20.0515 55.2155 14.4692 55.2155C14.0597 54.9084 13.9634 54.4868 13.9814 53.993C14.0055 53.15 13.9874 52.3129 13.9874 51.4699C13.9874 51.2109 13.9874 50.952 13.9874 50.6569C12.783 50.6569 11.675 50.6629 10.567 50.6569C9.66973 50.6509 9.42886 50.404 9.42284 49.5067C9.42284 48.3866 9.42284 47.2605 9.42284 46.0863C8.45933 46.0863 7.55604 46.0983 6.64673 46.0863C4.09946 46.0562 1.81717 44.4122 0.931949 42.0155C0.504394 40.8593 0.564616 39.6609 0.558594 38.4625C0.558594 37.3605 0.745264 37.1739 1.82921 37.1739C2.82282 37.1739 3.82247 37.1739 4.85221 37.1739C4.85221 36.8487 4.85221 36.6018 4.85221 36.3549C4.85221 24.7386 4.85221 13.1224 4.84619 1.50613C4.84619 1.00029 4.90038 0.554675 5.33396 0.229492C16.6792 0.229492 28.0305 0.229492 39.3818 0.229492C39.7913 0.536609 39.8816 0.958142 39.8696 1.45194C39.8455 2.39738 39.8816 3.34884 39.8575 4.29428C39.8455 4.69774 39.972 4.81818 40.3754 4.81216C41.4112 4.78807 42.453 4.79409 43.4887 4.80613C44.1511 4.81215 44.4221 5.10121 44.4282 5.76362C44.4342 6.24537 44.4282 6.72712 44.4282 7.21489C44.4282 7.91946 44.4282 8.63005 44.4282 9.3587C45.5964 9.3587 46.6864 9.3587 47.7763 9.3587C48.782 9.3587 48.9928 9.56946 48.9928 10.5932C48.9928 25.0638 48.9927 39.5345 48.9988 53.9991C49.0048 54.4929 48.9205 54.9084 48.511 55.2215ZM38.2376 1.88552C27.6271 1.88552 17.0586 1.88552 6.49618 1.88552C6.49618 13.6583 6.49618 25.395 6.49618 37.1799C6.71899 37.1799 6.9117 37.1799 7.1044 37.1799C10.9524 37.1799 14.8004 37.1799 18.6484 37.1799C18.8291 37.1799 19.0097 37.1618 19.1843 37.1919C19.6059 37.2702 19.8588 37.5292 19.8648 37.9627C19.8708 38.4204 19.6119 38.6974 19.1663 38.7757C18.9916 38.8058 18.811 38.7877 18.6303 38.7877C13.3672 38.7877 8.11005 38.7877 2.84691 38.7877C2.63614 38.7877 2.42537 38.7877 2.16643 38.7877C2.16643 39.1792 2.16041 39.5164 2.16643 39.8536C2.24472 42.5815 4.17174 44.4784 6.90568 44.4784C14.2946 44.4845 21.6894 44.4784 29.0783 44.4784C29.2228 44.4784 29.3734 44.4543 29.6022 44.4363C27.9402 42.8646 27.4705 40.9556 27.6331 38.7877C27.3801 38.7877 27.1874 38.7877 26.9947 38.7877C25.6699 38.7877 24.3451 38.7938 23.0203 38.7877C22.394 38.7877 22.0387 38.4806 22.0447 37.9687C22.0508 37.481 22.4 37.1799 22.9902 37.1799C24.7426 37.1739 26.5009 37.1739 28.2533 37.1799C28.9157 37.1799 29.2048 37.4569 29.2229 38.1193C29.2409 38.7636 29.2108 39.408 29.2409 40.0523C29.3794 42.6357 31.3004 44.4664 33.8958 44.4844C35.1845 44.4905 36.4732 44.4844 37.7619 44.4844C37.9125 44.4844 38.069 44.4604 38.2316 44.4483C38.2376 30.2366 38.2376 16.0852 38.2376 1.88552Z" fill="#363636"/>
<path fill-rule="evenodd" clip-rule="evenodd" d="M14.5474 17.4159C12.9215 17.4159 11.2896 17.4159 9.66365 17.4159C8.89887 17.4159 8.62187 17.1509 8.61584 16.3922C8.60982 13.0982 8.60982 9.81022 8.61584 6.51624C8.61584 5.75748 8.89285 5.49854 9.66365 5.49854C12.9396 5.49854 16.2095 5.49854 19.4854 5.49854C20.2502 5.49854 20.5272 5.7635 20.5332 6.52226C20.5392 9.81624 20.5392 13.1042 20.5332 16.3982C20.5332 17.1569 20.2502 17.4159 19.4854 17.4159C17.8354 17.4159 16.1914 17.4159 14.5474 17.4159ZM10.2538 15.7659C13.1323 15.7659 15.9987 15.7659 18.8832 15.7659C18.8832 12.8754 18.8832 10.0089 18.8832 7.13047C15.9866 7.13047 13.1323 7.13047 10.2538 7.13047C10.2538 10.0029 10.2538 12.8392 10.2538 15.7659Z" fill="#363636"/>
<path fill-rule="evenodd" clip-rule="evenodd" d="M22.3573 31.2663C26.5606 31.2663 30.7639 31.2663 34.9672 31.2724C35.2262 31.2724 35.5574 31.2784 35.726 31.4289C35.9187 31.6036 36.0933 31.9649 36.0451 32.1937C35.9849 32.4466 35.6898 32.6815 35.4429 32.8441C35.3044 32.9344 35.0576 32.8742 34.8648 32.8742C26.5305 32.8742 18.1902 32.8742 9.85589 32.8742C9.76556 32.8742 9.67523 32.8742 9.5849 32.8742C8.96464 32.8621 8.60935 32.555 8.62139 32.0432C8.63343 31.5554 8.98272 31.2663 9.57889 31.2663C13.1017 31.2603 16.6245 31.2663 20.1533 31.2663C20.894 31.2663 21.6287 31.2663 22.3573 31.2663Z" fill="#363636"/>
<path fill-rule="evenodd" clip-rule="evenodd" d="M28.3248 26.4368C30.5589 26.4368 32.793 26.4308 35.0272 26.4428C35.268 26.4428 35.5932 26.4549 35.7257 26.5994C35.9124 26.8102 36.0991 27.1895 36.0268 27.4184C35.9485 27.6713 35.6113 27.9242 35.3343 28.0206C35.0272 28.1229 34.6598 28.0507 34.3226 28.0507C30.1193 28.0507 25.916 28.0507 21.7188 28.0507C21.5742 28.0507 21.4297 28.0567 21.2912 28.0507C20.7553 28.0206 20.424 27.6954 20.4421 27.2197C20.4542 26.768 20.7793 26.4549 21.2972 26.4489C22.3872 26.4368 23.4772 26.4428 24.5671 26.4428C25.8197 26.4368 27.0722 26.4368 28.3248 26.4368Z" fill="#363636"/>
<path fill-rule="evenodd" clip-rule="evenodd" d="M22.3583 21.7095C24.201 21.7095 26.0437 21.7095 27.8804 21.7095C28.0249 21.7095 28.1694 21.7035 28.3079 21.7155C28.8017 21.7517 29.1209 22.0829 29.1088 22.5405C29.0968 22.9741 28.7897 23.2993 28.3139 23.3174C27.6696 23.3415 27.0253 23.3234 26.3809 23.3234C23.2194 23.3234 20.0519 23.3234 16.8904 23.3234C16.7639 23.3234 16.6375 23.3294 16.517 23.3234C15.9389 23.3053 15.5957 22.9922 15.6077 22.4984C15.6198 22.0287 15.957 21.7216 16.511 21.7216C17.6552 21.7095 18.7993 21.7216 19.9435 21.7216C20.7504 21.7095 21.5513 21.7095 22.3583 21.7095Z" fill="#363636"/>
<path fill-rule="evenodd" clip-rule="evenodd" d="M29.4519 6.88983C31.3488 6.88983 33.2397 6.88381 35.1366 6.88983C35.7327 6.88983 36.082 7.1849 36.0941 7.66665C36.1061 8.16045 35.7629 8.49166 35.1848 8.49166C33.878 8.49768 32.5773 8.49166 31.2705 8.49166C28.7654 8.49166 26.2663 8.49767 23.7612 8.48563C23.5083 8.48563 23.159 8.45552 23.0205 8.29293C22.8399 8.08819 22.6833 7.6787 22.7676 7.46191C22.8639 7.21501 23.2253 6.94402 23.5023 6.91391C24.1888 6.83563 24.8933 6.88381 25.5919 6.88381C26.8806 6.88983 28.1632 6.88983 29.4519 6.88983Z" fill="#363636"/>
<path fill-rule="evenodd" clip-rule="evenodd" d="M29.3978 10.6475C31.2947 10.6475 33.1856 10.6415 35.0825 10.6595C35.3354 10.6595 35.6847 10.7137 35.8112 10.8763C35.9798 11.0931 36.1123 11.5086 36.0159 11.7254C35.9015 11.9663 35.5282 12.2132 35.2451 12.2373C34.3177 12.2975 33.3904 12.2614 32.457 12.2614C29.6327 12.2614 26.8084 12.2614 23.9842 12.2614C23.8396 12.2614 23.7011 12.2674 23.5566 12.2614C23.0207 12.2313 22.6894 11.9061 22.7015 11.4303C22.7135 10.9787 23.0387 10.6595 23.5506 10.6535C24.9657 10.6415 26.3749 10.6475 27.79 10.6475C28.3199 10.6475 28.8619 10.6475 29.3978 10.6475Z" fill="#363636"/>
<path fill-rule="evenodd" clip-rule="evenodd" d="M29.3615 16.019C27.4827 16.019 25.6039 16.019 23.7311 16.019C23.0626 16.019 22.6953 15.7239 22.6953 15.206C22.7013 14.6942 23.0626 14.4111 23.7431 14.4111C27.5128 14.4111 31.2886 14.4111 35.0583 14.4111C35.7267 14.4111 36.1001 14.7062 36.094 15.2241C36.088 15.7359 35.7207 16.019 35.0462 16.025C33.1553 16.019 31.2584 16.019 29.3615 16.019Z" fill="#363636"/>
<path fill-rule="evenodd" clip-rule="evenodd" d="M13.3739 28.0447C12.1033 28.0447 10.8327 28.0447 9.56807 28.0447C8.94179 28.0447 8.57445 27.7376 8.56843 27.2438C8.56241 26.75 8.93578 26.4369 9.55603 26.4369C12.1334 26.4309 14.7048 26.4309 17.2821 26.4369C17.9144 26.4369 18.2697 26.732 18.2757 27.2318C18.2757 27.7316 17.9144 28.0387 17.2942 28.0447C15.9814 28.0508 14.6746 28.0447 13.3739 28.0447Z" fill="#363636"/>
</svg>
