<svg width="20" height="20" viewBox="0 0 20 20" fill="none" xmlns="http://www.w3.org/2000/svg">
<path d="M8.89724 20C7.6274 19.8663 6.44946 19.5155 5.36341 18.9474C4.27736 18.3793 3.33751 17.6441 2.54386 16.7419C1.75021 15.8396 1.12782 14.812 0.676692 13.6591C0.225564 12.5063 0 11.2865 0 10C0 7.41019 0.847953 5.16291 2.54386 3.25815C4.23977 1.35338 6.36591 0.267335 8.92231 0V1.50376C6.78363 1.82122 5.01253 2.78195 3.60902 4.38596C2.20551 5.98997 1.50376 7.86132 1.50376 10C1.50376 12.1387 2.20134 14.01 3.59649 15.614C4.99165 17.218 6.75856 18.1788 8.89724 18.4962V20ZM10 15.0376L4.98747 10.0251L6.06516 8.94737L9.24812 12.1303V5.01253H10.7519V12.1303L13.9348 8.94737L15.0125 10.0251L10 15.0376ZM11.1028 20V18.4962C11.8713 18.396 12.6107 18.1997 13.3208 17.9073C14.0309 17.6149 14.6867 17.2264 15.2882 16.7419L16.391 17.8446C15.6224 18.4294 14.7911 18.914 13.8972 19.2982C13.0033 19.6825 12.0718 19.9165 11.1028 20ZM15.3133 3.28321C14.6784 2.83208 14.01 2.45196 13.3083 2.14286C12.6065 1.83375 11.8713 1.62072 11.1028 1.50376V0C12.0718 0.116959 12.9992 0.363409 13.8847 0.739348C14.7703 1.11529 15.6057 1.59566 16.391 2.18045L15.3133 3.28321ZM17.8195 16.2907L16.7419 15.2381C17.2264 14.6199 17.6107 13.9557 17.8947 13.2456C18.1788 12.5355 18.3709 11.7962 18.4712 11.0276H20C19.883 11.9967 19.6408 12.9282 19.2732 13.8221C18.9056 14.716 18.4211 15.5388 17.8195 16.2907ZM18.4712 8.97243C18.3709 8.20384 18.1788 7.46032 17.8947 6.74185C17.6107 6.02339 17.2264 5.36341 16.7419 4.7619L17.9198 3.73434C18.5046 4.50292 18.9724 5.32999 19.3233 6.21554C19.6742 7.10109 19.8997 8.02005 20 8.97243H18.4712Z" fill="white"/>
</svg>
