<svg width="36" height="38" viewBox="0 0 36 38" fill="none" xmlns="http://www.w3.org/2000/svg">
<path fill-rule="evenodd" clip-rule="evenodd" d="M3.22994 14.2485C3.33554 13.1943 3.34888 12.1632 3.55346 11.1716C4.5475 6.35114 7.38265 3.06195 11.9674 1.29086C13.4412 0.721594 14.9862 0.503672 16.5641 0.521979C18.1275 0.540285 19.7053 0.433134 21.2514 0.606892C26.7193 1.22135 30.4148 4.19251 32.3837 9.30886C32.912 10.6821 33.105 12.132 33.104 13.6045C33.104 13.8101 33.104 14.0157 33.104 14.2241C34.2816 14.5442 35.097 15.2337 35.4447 16.3988C35.5392 16.7153 35.5786 17.059 35.5807 17.3905C35.5928 19.3812 35.5905 21.372 35.5855 23.3629C35.5809 25.2521 34.2488 26.59 32.3611 26.5803C31.9706 26.5783 31.7224 26.6497 31.5068 27.0261C31.2006 27.5604 30.6618 27.809 30.04 27.8264C29.6008 27.8386 29.1608 27.8388 28.7216 27.8267C27.7061 27.7989 26.9046 27.0044 26.9019 25.9837C26.8926 22.2478 26.8924 18.5118 26.9021 14.7758C26.9048 13.7561 27.7098 12.9639 28.7257 12.9371C29.1133 12.9268 29.5013 12.9376 29.8892 12.9339C30.7031 12.926 31.3014 13.2782 31.6818 13.999C31.7106 14.0537 31.7431 14.1066 31.8498 14.1541C31.8498 13.7405 31.8706 13.3258 31.8467 12.9135C31.5173 7.23338 27.248 2.61328 21.5923 1.87419C20.5219 1.73425 19.4255 1.77148 18.3409 1.76838C16.9344 1.76435 15.5285 1.71315 14.1284 1.97544C9.60996 2.822 5.86299 6.41123 4.86047 10.8893C4.62042 11.9615 4.51502 13.0421 4.56684 14.1449C4.61938 14.1352 4.65703 14.138 4.66292 14.1256C5.0787 13.254 5.77601 12.877 6.7292 12.932C6.99976 12.9475 7.27209 12.9331 7.54348 12.9346C8.73165 12.9412 9.51574 13.716 9.51812 14.8997C9.52246 17.0199 9.51936 19.1399 9.51936 21.26C9.51936 22.7853 9.52184 24.3108 9.51853 25.8362C9.51584 27.0497 8.74169 27.8237 7.5319 27.8295C7.15697 27.8315 6.78194 27.8378 6.40723 27.8274C5.69079 27.8078 5.13724 27.4872 4.79593 26.8593C4.67761 26.6417 4.55267 26.5708 4.3183 26.5846C3.62131 26.626 2.95224 26.5199 2.34698 26.1433C1.38552 25.5451 0.852972 24.6761 0.839112 23.5479C0.813359 21.4411 0.821323 19.3337 0.835286 17.2266C0.84387 15.9264 1.66829 14.8034 2.89483 14.3598C3.0267 14.3125 3.16085 14.2714 3.22994 14.2485ZM4.55412 25.3736C4.55412 25.1498 4.55412 24.9969 4.55412 24.8442C4.55422 23.59 4.55598 22.3359 4.55329 21.0819C4.55257 20.7437 4.69209 20.4566 5.02213 20.4242C5.23581 20.4033 5.50451 20.541 5.68065 20.6887C5.78646 20.7774 5.79018 21.0218 5.79101 21.1964C5.79876 22.7478 5.79297 24.2992 5.79711 25.8507C5.79845 26.3574 6.0263 26.5803 6.53217 26.5879C6.84245 26.5927 7.15273 26.5901 7.46301 26.5887C8.07003 26.5857 8.27699 26.3808 8.2775 25.7734C8.27906 24.0022 8.27812 22.2309 8.27812 20.4597C8.27812 18.6237 8.27968 16.7879 8.27709 14.952C8.27637 14.3959 8.05772 14.1811 7.5017 14.1765C7.17848 14.1738 6.85517 14.1722 6.53206 14.1769C6.02548 14.1842 5.80176 14.4064 5.7968 14.9136C5.79152 15.4566 5.79928 15.9996 5.79421 16.5426C5.78987 16.9973 5.54816 17.277 5.17313 17.276C4.7981 17.275 4.56074 16.9962 4.55526 16.5399C4.55081 16.1707 4.55433 15.8015 4.55433 15.4187C4.2909 15.4187 4.08456 15.4125 3.87895 15.4198C2.88418 15.4549 2.08396 16.2427 2.07714 17.241C2.06297 19.3354 2.06504 21.4299 2.07672 23.5243C2.08138 24.3794 2.66429 25.0956 3.49999 25.2817C3.82196 25.3533 4.16254 25.3423 4.55412 25.3736ZM31.9343 15.3968C31.8861 15.4731 31.8738 15.4836 31.8737 15.494C31.8693 15.843 31.868 16.1918 31.8621 16.5406C31.8544 16.9961 31.617 17.2754 31.2423 17.2758C30.8671 17.2761 30.6268 16.9971 30.6228 16.5415C30.6177 15.9727 30.6296 15.4037 30.6177 14.8351C30.6091 14.4231 30.373 14.1922 29.9609 14.1786C29.6252 14.1677 29.2888 14.1744 28.9526 14.1759C28.345 14.1787 28.14 14.3824 28.1395 14.9913C28.1379 16.7237 28.1389 18.4561 28.1389 20.1885C28.1389 22.0631 28.1373 23.9377 28.1399 25.8123C28.1406 26.3685 28.359 26.583 28.9151 26.5882C29.2124 26.5908 29.5098 26.5899 29.8072 26.5884C30.4136 26.5853 30.6203 26.3804 30.621 25.7723C30.6227 24.2339 30.6201 22.6954 30.6224 21.1569C30.6231 20.6685 30.8563 20.3844 31.2431 20.3851C31.6293 20.3858 31.861 20.6701 31.8619 21.1594C31.8643 22.4135 31.8628 23.6676 31.8628 24.9216C31.8628 25.0577 31.8628 25.1941 31.8628 25.3457C32.1253 25.3457 32.3314 25.3521 32.537 25.3445C33.5323 25.3082 34.3323 24.5223 34.3395 23.5233C34.3545 21.429 34.3523 19.3345 34.3401 17.2401C34.3351 16.3837 33.7532 15.6691 32.9176 15.4825C32.5952 15.411 32.2545 15.4223 31.9343 15.3968Z" fill="#D81E05"/>
<path fill-rule="evenodd" clip-rule="evenodd" d="M19.4608 34.0369C20.0683 34.037 20.6759 34.0314 21.2833 34.0384C22.0321 34.047 22.5873 34.3858 22.9626 35.0347C23.0187 35.1318 23.1303 35.267 23.2155 35.2664C24.4009 35.2575 25.59 35.3598 26.7633 35.0576C29.6485 34.3145 31.7821 31.6534 31.8659 28.671C31.8715 28.4726 31.8874 28.21 32.0096 28.0957C32.1633 27.9517 32.4408 27.8494 32.6477 27.8738C32.96 27.9108 33.1059 28.1801 33.1039 28.5024C33.0974 29.5883 32.9076 30.6452 32.4468 31.6259C30.9884 34.7284 28.5376 36.3712 25.1034 36.5149C24.5228 36.5391 23.9396 36.5059 23.359 36.5292C23.2269 36.5344 23.0441 36.6312 22.9796 36.7415C22.5853 37.4176 22.0121 37.7603 21.2318 37.7605C20.0426 37.7608 18.8534 37.7649 17.6642 37.7592C16.5673 37.7538 15.7345 36.9535 15.7286 35.9113C15.7222 34.8514 16.5592 34.0445 17.6771 34.0375C18.2715 34.0337 18.8662 34.0368 19.4608 34.0369ZM19.4818 35.2781C18.8872 35.2781 18.2925 35.2742 17.698 35.2794C17.2451 35.2834 16.9666 35.5295 16.9716 35.9061C16.9767 36.2697 17.247 36.5153 17.6748 36.5173C18.864 36.5227 20.0532 36.5234 21.2423 36.5169C21.6637 36.5146 21.9352 36.2547 21.9303 35.8906C21.9254 35.5261 21.6563 35.2848 21.2267 35.28C20.6452 35.2732 20.0634 35.2782 19.4818 35.2781Z" fill="#D81E05"/>
<path fill-rule="evenodd" clip-rule="evenodd" d="M25.5696 4.73042C25.5789 5.34808 25.1037 5.61431 24.625 5.40952C23.9855 5.13606 23.3618 4.79589 22.6956 4.62285C21.9157 4.42024 21.1002 4.29664 20.2951 4.26375C18.9142 4.20738 17.5294 4.25506 16.1463 4.24638C14.6816 4.23707 13.3085 4.58438 12.0163 5.26648C11.9363 5.30868 11.8589 5.35615 11.7767 5.39359C11.4149 5.55866 11.0814 5.4601 10.9136 5.14144C10.748 4.82722 10.8573 4.48943 11.2088 4.29344C12.1855 3.7491 13.215 3.32618 14.3243 3.16991C15.0885 3.06224 15.8664 3.02945 16.6393 3.01332C17.8539 2.98808 19.0694 3.01042 20.2844 3.00308C22.0319 2.99273 23.6508 3.46726 25.1675 4.30678C25.3588 4.41279 25.4844 4.63764 25.5696 4.73042Z" fill="#D81E05"/>
<path fill-rule="evenodd" clip-rule="evenodd" d="M9.50087 6.72488C9.17197 6.71526 8.8922 6.42039 8.90057 6.0918C8.90895 5.7599 9.20082 5.48551 9.53489 5.49544C9.87114 5.50558 10.1466 5.79455 10.1356 6.12583C10.1248 6.45473 9.82852 6.7344 9.50087 6.72488Z" fill="#D81E05"/>
<path fill-rule="evenodd" clip-rule="evenodd" d="M26.9047 5.49414C27.244 5.49342 27.5189 5.77247 27.5142 6.11295C27.5096 6.44288 27.219 6.72793 26.89 6.72493C26.5525 6.72182 26.2768 6.44133 26.2793 6.10333C26.2815 5.77112 26.5652 5.49497 26.9047 5.49414Z" fill="#D81E05"/>
</svg>
