<svg width="25" height="19" viewBox="0 0 25 19" fill="none" xmlns="http://www.w3.org/2000/svg">
<path fill-rule="evenodd" clip-rule="evenodd" d="M0.396118 2.52724C0.498743 2.03515 0.650479 1.56578 0.967997 1.16251C1.54696 0.427121 2.29186 0.0167473 3.23137 0.0101428C4.59928 0.000515892 5.96746 -0.00743186 7.3352 0.011654C8.94776 0.0340421 10.1606 1.28783 10.1733 2.91131C10.1742 3.02828 10.1734 3.14526 10.1734 3.28535C10.2914 3.28535 10.3841 3.28535 10.4769 3.28535C12.6909 3.28569 14.905 3.27813 17.119 3.28922C18.4551 3.29599 19.5775 4.20651 19.8743 5.50715C19.9301 5.75185 19.9442 6.00976 19.9482 6.26208C19.9583 6.89566 19.9515 7.52958 19.9515 8.19423C20.0534 8.19423 20.1373 8.19411 20.2213 8.19423C20.9804 8.1954 21.7396 8.18852 22.4985 8.19982C23.4568 8.21404 24.4695 8.78936 24.6701 9.92623C24.6724 9.93944 24.6889 9.95018 24.6989 9.9621C24.6989 10.1527 24.6989 10.3434 24.6989 10.534C24.5758 11.1788 24.2169 11.691 23.8108 12.1866C22.6958 13.5473 21.5963 14.9208 20.4867 16.286C19.5602 17.426 18.357 18.0041 16.8948 18.0084C13.9456 18.0171 10.9962 18.011 8.04694 18.011C6.4734 18.011 4.89996 18.0094 3.32647 18.0115C2.3014 18.0129 1.5003 17.5838 0.897927 16.7592C0.620265 16.3792 0.494618 15.9408 0.396118 15.4905C0.396118 11.1694 0.396118 6.84831 0.396118 2.52724ZM10.1957 16.369C12.442 16.369 14.6884 16.3701 16.9348 16.3685C17.8622 16.3678 18.6197 16.0035 19.204 15.2798C20.3793 13.8242 21.5547 12.3688 22.7276 10.9111C22.8314 10.7821 22.9324 10.6461 23.0078 10.4995C23.152 10.2192 23.029 9.95057 22.7259 9.87328C22.5969 9.84048 22.46 9.82559 22.3267 9.82553C17.747 9.82318 13.1672 9.81719 8.58749 9.8294C7.74754 9.83164 7.03006 10.1868 6.49536 10.8395C5.27975 12.3235 4.08264 13.8228 2.8803 15.3176C2.79635 15.422 2.72254 15.5367 2.6581 15.6543C2.47114 15.9959 2.62204 16.2968 3.00661 16.3458C3.16292 16.3657 3.32224 16.368 3.48016 16.3681C5.71873 16.3695 7.95719 16.369 10.1957 16.369ZM18.3113 8.19417C18.3163 8.09281 18.3234 8.01557 18.3235 7.93827C18.3245 7.39044 18.3259 6.8426 18.3236 6.29476C18.3199 5.4026 17.8309 4.9165 16.937 4.91594C15.4663 4.91498 13.9954 4.91571 12.5247 4.91566C11.6233 4.91566 10.7218 4.92008 9.82038 4.91414C9.05312 4.90905 8.56659 4.4206 8.54897 3.64961C8.54429 3.4433 8.54847 3.23683 8.54769 3.03041C8.54423 2.13069 8.0674 1.6508 7.16819 1.64918C5.91088 1.64694 4.65363 1.64711 3.39638 1.65052C3.2394 1.65091 3.07735 1.65701 2.92651 1.69541C2.34789 1.84261 2.02295 2.33045 2.02279 3.03584C2.02206 6.51333 2.0224 9.99087 2.0229 13.4683C2.0229 13.5439 2.0297 13.6195 2.03628 13.7566C2.13188 13.6422 2.19113 13.5732 2.24833 13.5026C3.21577 12.3077 4.1783 11.1087 5.15159 9.91873C6.07856 8.78527 7.27165 8.1949 8.74101 8.19439C11.8328 8.19339 14.9246 8.19411 18.0164 8.19411C18.1091 8.19417 18.2018 8.19417 18.3113 8.19417Z" fill="white"/>
</svg>
