<svg width="38" height="32" viewBox="0 0 38 32" fill="none" xmlns="http://www.w3.org/2000/svg">
<path fill-rule="evenodd" clip-rule="evenodd" d="M37.8885 9.2769C37.8885 9.67047 37.8885 10.0641 37.8885 10.4577C37.6426 11.9744 36.8052 13.058 35.4653 13.7873C35.3752 13.8364 35.3249 14.0315 35.3242 14.1591C35.3148 15.7457 35.3214 17.3326 35.3139 18.9193C35.3129 19.1349 35.3717 19.2725 35.5533 19.4087C36.6484 20.2299 37.0896 21.5873 36.6504 22.8898C36.498 23.3419 36.2192 23.7514 35.9905 24.1949C37.026 24.7547 37.6592 25.6255 37.7006 26.8538C37.732 27.7837 37.4968 28.6619 37.0024 29.4527C35.9093 31.2009 34.2926 31.9991 32.2535 31.9994C23.3859 32.0005 14.5182 31.9999 5.65044 31.9993C5.47781 31.9993 5.30462 31.9999 5.13287 31.9855C3.07642 31.813 1.52759 30.8517 0.643725 28.974C0.0904116 27.7985 -0.107896 26.5494 0.63952 25.3761C0.952253 24.8856 1.45178 24.5133 1.8889 24.064C1.88835 24.0632 1.83257 23.9841 1.77204 23.9088C0.623695 22.4773 0.924366 20.3735 2.43934 19.3312C2.62769 19.2017 2.68844 19.0677 2.68733 18.8501C2.67937 17.3495 2.67184 15.8487 2.69198 14.3483C2.69641 14.0191 2.59559 13.8422 2.30621 13.6907C1.26985 13.1485 0.533616 12.3365 0.18702 11.2046C0.11188 10.9596 0.0616391 10.7068 0 10.4577C0 10.0641 0 9.67047 0 9.2769C0.0182594 9.24589 0.0486916 9.21653 0.0530075 9.18364C0.253528 7.66742 0.998178 6.42711 2.05656 5.36825C3.9376 3.48683 6.26572 2.35766 8.75508 1.53134C11.1865 0.72434 13.6919 0.287949 16.2469 0.102312C19.6752 -0.146897 23.0709 0.0502186 26.4278 0.792106C29.3012 1.42716 32.031 2.41869 34.4335 4.16558C35.5698 4.99179 36.5869 5.94978 37.1964 7.23555C37.5022 7.88076 37.6624 8.59428 37.8885 9.2769ZM18.9063 14.1885C18.9064 14.173 18.9065 14.1577 18.9067 14.1422C20.8424 14.1422 22.7796 14.1891 24.7135 14.1294C26.7935 14.0652 28.8737 13.9392 30.9476 13.7663C32.2243 13.6598 33.4746 13.3613 34.6483 12.8097C36.2179 12.0723 36.8792 10.8127 36.5675 9.11632C36.3098 7.71377 35.473 6.66308 34.4391 5.75399C32.7834 4.29824 30.8196 3.39522 28.75 2.70664C26.1868 1.85362 23.5427 1.42528 20.8486 1.28666C17.1034 1.09407 13.4131 1.42076 9.80959 2.49805C7.49131 3.19115 5.29942 4.14781 3.45013 5.75277C2.5562 6.52865 1.82383 7.43112 1.45178 8.57916C0.876117 10.3557 1.41195 11.8099 3.01534 12.6804C3.52892 12.9593 4.09552 13.1618 4.6599 13.3228C6.55776 13.8644 8.5176 14.0012 10.475 14.0592C13.2842 14.1425 16.0957 14.1491 18.9063 14.1885ZM18.9451 30.7559C19.8946 30.7559 20.8441 30.756 21.7936 30.7559C25.3695 30.7555 28.9457 30.7639 32.5216 30.7512C34.3745 30.7445 35.9651 29.4757 36.3819 27.7361C36.7931 26.0191 35.6975 25.087 34.314 25.1008C30.7876 25.1359 27.2608 25.1147 23.7341 25.1077C23.481 25.1072 23.2997 25.1768 23.1193 25.359C21.9415 26.5497 20.7524 27.729 19.5659 28.911C19.0835 29.3917 18.8064 29.3913 18.3221 28.9089C17.1441 27.7358 15.9628 26.566 14.7942 25.3838C14.5956 25.1829 14.3946 25.1064 14.115 25.1071C10.613 25.1151 7.11097 25.1121 3.60893 25.1132C3.44892 25.1133 3.28845 25.1202 3.12899 25.134C2.11012 25.222 1.37421 26.0259 1.42666 27.0436C1.44669 27.4306 1.52305 27.8287 1.65308 28.1937C2.20009 29.7276 3.72037 30.7515 5.44261 30.7537C9.9436 30.7597 14.4444 30.7556 18.9451 30.7559ZM35.0803 20.6387C34.2979 21.1425 33.4948 21.4228 32.6092 21.4534C31.518 21.4911 30.5669 21.1048 29.6588 20.5387C28.8927 20.0611 28.0405 19.9204 27.1743 20.1879C26.688 20.338 26.2278 20.591 25.7794 20.8397C24.84 21.3608 23.8499 21.5508 22.7868 21.3992C22.0107 21.2885 21.3461 20.9255 20.6867 20.5337C19.9105 20.0724 19.0656 19.9204 18.1996 20.1888C17.7134 20.3394 17.2543 20.5939 16.8055 20.8421C15.8774 21.3551 14.8993 21.5474 13.8487 21.4039C13.0594 21.2962 12.3813 20.9331 11.7128 20.5311C11.0582 20.1377 10.3455 20.007 9.58251 20.1014C8.89739 20.1861 8.33988 20.5445 7.7621 20.8723C6.8519 21.3887 5.86468 21.6053 4.84249 21.3806C4.14863 21.2281 3.4872 20.9281 2.77166 20.6802C2.43181 21.0642 2.23937 21.5793 2.32679 22.1763C2.48438 23.2521 3.29343 23.8791 4.51427 23.8792C14.1314 23.8799 23.7487 23.88 33.3658 23.8773C33.5866 23.8772 33.8123 23.868 34.0271 23.8221C34.7617 23.665 35.2575 23.2218 35.4881 22.5094C35.7103 21.8231 35.549 21.2093 35.0803 20.6387ZM34.0878 18.2961C33.4298 18.3577 32.8344 18.4559 32.2387 18.4592C31.31 18.4643 30.4939 18.0854 29.7243 17.5949C29.1232 17.2117 28.4618 17.0658 27.751 17.0997C26.992 17.1359 26.3713 17.5061 25.7416 17.874C24.9328 18.3466 24.0561 18.5233 23.1173 18.4568C22.2262 18.3935 21.4591 18.0341 20.7198 17.5732C20.139 17.2111 19.4991 17.0713 18.814 17.0979C18.0541 17.1275 17.4279 17.4846 16.7998 17.8573C15.9819 18.3426 15.0947 18.5319 14.1435 18.4541C13.4159 18.3946 12.7573 18.1593 12.1261 17.8002C11.7122 17.5648 11.2812 17.3275 10.827 17.2008C9.83006 16.9229 8.90769 17.1711 8.0506 17.7299C7.10676 18.3452 6.0662 18.5804 4.94762 18.43C4.61242 18.385 4.28364 18.293 3.92609 18.217C3.92609 18.6961 3.91381 19.1508 3.9355 19.6038C3.94037 19.7057 4.04472 19.86 4.13657 19.8905C4.51902 20.0173 4.90867 20.1514 5.30573 20.1995C6.18195 20.3055 6.9422 19.9666 7.66671 19.5084C8.49381 18.9853 9.40434 18.7938 10.3826 18.855C11.2609 18.91 12.0045 19.2866 12.7599 19.6916C13.2143 19.9353 13.7347 20.1035 14.2449 20.187C15.13 20.3319 15.9056 19.9718 16.6411 19.5064C17.4569 18.9903 18.3552 18.799 19.3204 18.8527C20.2125 18.9023 20.9669 19.2827 21.734 19.6936C22.1984 19.9422 22.734 20.1062 23.2567 20.189C24.1885 20.3368 24.9708 19.8931 25.7442 19.4321C26.7145 18.8536 27.7716 18.7287 28.8802 18.9288C29.6023 19.0592 30.2067 19.4323 30.8295 19.7816C31.8077 20.3303 32.8213 20.3646 33.8442 19.9086C33.946 19.8632 34.0715 19.7313 34.0767 19.6337C34.1012 19.171 34.0878 18.7062 34.0878 18.2961ZM3.92653 14.4403C3.92653 15.1903 3.91956 15.9254 3.93572 16.6599C3.93771 16.7492 4.04882 16.8885 4.13624 16.9145C4.55764 17.0399 4.98303 17.1873 5.4165 17.2288C6.29439 17.3129 7.0356 16.9174 7.76343 16.4766C8.59894 15.9704 9.5171 15.793 10.4945 15.8835C11.3684 15.9646 12.1158 16.3417 12.8512 16.7829C13.6367 17.2542 14.4985 17.399 15.3749 17.113C15.8711 16.9509 16.333 16.6765 16.7979 16.4292C17.6135 15.9957 18.473 15.8033 19.3967 15.876C20.2835 15.9459 21.0502 16.3126 21.7942 16.7671C22.6269 17.2759 23.535 17.3978 24.4588 17.0875C24.9193 16.9327 25.342 16.6612 25.7741 16.4284C26.5876 15.99 27.4488 15.8041 28.3725 15.8765C29.2734 15.9472 30.0416 16.3383 30.8024 16.7863C31.7675 17.3544 32.7855 17.4007 33.8143 16.9492C33.922 16.9019 34.0723 16.7819 34.0748 16.6921C34.0956 15.9336 34.0867 15.1743 34.0867 14.3845C33.9885 14.404 33.9305 14.411 33.8752 14.4273C31.6685 15.08 29.3928 15.2849 27.1135 15.3099C21.9718 15.366 16.8287 15.381 11.6872 15.3252C9.79542 15.3047 7.90386 15.0612 6.01717 14.8715C5.32542 14.802 4.64783 14.5934 3.92653 14.4403ZM16.414 25.139C17.2664 25.99 18.1206 26.843 18.8982 27.6197C19.7287 26.8023 20.5922 25.9522 21.4182 25.139C19.7873 25.139 18.0853 25.139 16.414 25.139Z" fill="#D81E05"/>
</svg>
