<svg width="17" height="19" viewBox="0 0 17 19" fill="none" xmlns="http://www.w3.org/2000/svg">
<path d="M6.67857 1.1875H10.3214C10.4825 1.1875 10.6369 1.25006 10.7507 1.36141C10.8646 1.47276 10.9286 1.62378 10.9286 1.78125V2.96875H6.07143V1.78125C6.07143 1.62378 6.1354 1.47276 6.24926 1.36141C6.36312 1.25006 6.51755 1.1875 6.67857 1.1875ZM12.1429 2.96875V1.78125C12.1429 1.30883 11.951 0.855765 11.6094 0.521716C11.2678 0.187667 10.8045 0 10.3214 0L6.67857 0C6.1955 0 5.73221 0.187667 5.39063 0.521716C5.04904 0.855765 4.85714 1.30883 4.85714 1.78125V2.96875H1.82871C1.82467 2.96872 1.82062 2.96872 1.81657 2.96875H0.607143C0.446119 2.96875 0.291689 3.03131 0.177828 3.14266C0.0639666 3.25401 0 3.40503 0 3.5625C0 3.71997 0.0639666 3.87099 0.177828 3.98234C0.291689 4.09369 0.446119 4.15625 0.607143 4.15625H1.26043L2.29621 16.815C2.34506 17.4102 2.62134 17.9655 3.07005 18.3704C3.51875 18.7753 4.10695 19.0001 4.7175 19H12.2825C12.8931 19.0001 13.4812 18.7753 13.93 18.3704C14.3787 17.9655 14.6549 17.4102 14.7038 16.815L15.7396 4.15625H16.3929C16.5539 4.15625 16.7083 4.09369 16.8222 3.98234C16.936 3.87099 17 3.71997 17 3.5625C17 3.40503 16.936 3.25401 16.8222 3.14266C16.7083 3.03131 16.5539 2.96875 16.3929 2.96875H15.1846C15.1806 2.96872 15.1765 2.96872 15.1725 2.96875H12.1429ZM14.5204 4.15625L13.4931 16.72C13.4687 17.0176 13.3306 17.2953 13.1062 17.4977C12.8819 17.7002 12.5878 17.8126 12.2825 17.8125H4.7175C4.41222 17.8126 4.11813 17.7002 3.89377 17.4977C3.66942 17.2953 3.53128 17.0176 3.50686 16.72L2.47957 4.15625H14.5204ZM5.42907 5.34375C5.58976 5.33467 5.74756 5.38836 5.86779 5.49301C5.98802 5.59767 6.06083 5.74474 6.07021 5.90187L6.67736 15.9956C6.68374 16.1509 6.62759 16.3025 6.52098 16.4177C6.41437 16.533 6.26578 16.6028 6.10714 16.6121C5.94849 16.6215 5.79243 16.5696 5.67247 16.4676C5.5525 16.3657 5.47819 16.2218 5.4655 16.0669L4.85714 5.97313C4.85221 5.89512 4.86308 5.81693 4.88912 5.74305C4.91515 5.66916 4.95585 5.60102 5.00887 5.54255C5.06189 5.48408 5.1262 5.43642 5.1981 5.4023C5.27 5.36819 5.34808 5.34829 5.42786 5.34375H5.42907ZM11.5709 5.34375C11.6507 5.34829 11.7288 5.36819 11.8007 5.4023C11.8726 5.43642 11.9369 5.48408 11.9899 5.54255C12.0429 5.60102 12.0836 5.66916 12.1097 5.74305C12.1357 5.81693 12.1466 5.89512 12.1416 5.97313L11.5345 16.0669C11.5313 16.1458 11.512 16.2233 11.4777 16.2948C11.4435 16.3663 11.395 16.4304 11.3351 16.4834C11.2752 16.5364 11.2052 16.5771 11.129 16.6033C11.0528 16.6294 10.972 16.6405 10.8914 16.6357C10.8108 16.631 10.732 16.6106 10.6595 16.5757C10.5871 16.5408 10.5225 16.4921 10.4696 16.4325C10.4166 16.3729 10.3763 16.3035 10.3511 16.2285C10.3259 16.1535 10.3162 16.0743 10.3226 15.9956L10.9298 5.90187C10.9392 5.74474 11.012 5.59767 11.1322 5.49301C11.2524 5.38836 11.4102 5.33467 11.5709 5.34375ZM8.5 5.34375C8.66102 5.34375 8.81545 5.40631 8.92932 5.51766C9.04318 5.629 9.10714 5.78003 9.10714 5.9375V16.0312C9.10714 16.1887 9.04318 16.3397 8.92932 16.4511C8.81545 16.5624 8.66102 16.625 8.5 16.625C8.33898 16.625 8.18455 16.5624 8.07069 16.4511C7.95682 16.3397 7.89286 16.1887 7.89286 16.0312V5.9375C7.89286 5.78003 7.95682 5.629 8.07069 5.51766C8.18455 5.40631 8.33898 5.34375 8.5 5.34375Z" fill="white"/>
</svg>
