<svg width="37" height="26" viewBox="0 0 37 26" fill="none" xmlns="http://www.w3.org/2000/svg">
<path fill-rule="evenodd" clip-rule="evenodd" d="M18.8841 0.0147027C21.9791 0.0146043 25.0741 0.011355 28.1691 0.0152913C32.0504 0.0203102 35.2214 2.58483 35.914 6.35388C36.1085 7.41246 36.11 8.50725 36.1752 9.58699C36.4014 13.3317 36.5723 17.0802 36.8504 20.8209C37.0622 23.671 35.2038 25.3444 33.5705 25.8128C31.2261 26.4848 28.764 25.2794 27.9358 23.0122C27.6869 22.3309 27.4801 21.6346 27.2643 20.9421C27.143 20.5527 27.2909 20.2542 27.636 20.1437C27.9728 20.0359 28.2678 20.2043 28.4001 20.5999C28.6028 21.2063 28.789 21.8182 28.9908 22.4249C29.5319 24.0505 31.1069 25.0447 32.7177 24.7824C34.5022 24.4918 35.7192 23.1077 35.6481 21.3316C35.5561 19.0337 35.3954 16.7385 35.2606 14.4424C35.1231 12.0971 34.9603 9.7532 34.8463 7.40675C34.6788 3.96659 31.8289 1.21007 28.3365 1.20082C22.0343 1.18438 15.7321 1.18448 9.42985 1.20062C5.96757 1.20948 3.11952 3.9286 2.92635 7.33255C2.6699 11.8517 2.39887 16.3699 2.12954 20.8883C2.02791 22.5932 2.68847 23.8392 4.05479 24.4871C5.85426 25.3406 8.01271 24.4888 8.70511 22.6349C8.95028 21.9787 9.12088 21.2951 9.37594 20.6432C9.45191 20.4488 9.67442 20.2357 9.87328 20.1785C10.2653 20.0659 10.6524 20.4503 10.5282 20.8346C10.2115 21.815 9.95314 22.8361 9.47267 23.7381C8.50965 25.5461 6.33652 26.3719 4.30905 25.8415C2.33508 25.3251 0.875119 23.5077 0.927128 21.4848C0.97794 19.5062 1.13048 17.5299 1.24328 15.5529C1.38204 13.1215 1.54296 10.6912 1.66105 8.25877C1.73443 6.74535 1.91052 5.26509 2.71642 3.93362C4.23628 1.42253 6.48387 0.0753218 9.44981 0.0265112C12.5937 -0.02535 15.7393 0.0148995 18.8841 0.0147027Z" fill="#D81E05"/>
<path fill-rule="evenodd" clip-rule="evenodd" d="M8.38454 6.16537C8.38454 5.71144 8.37814 5.31179 8.38578 4.91224C8.40574 3.87525 9.15993 3.06195 10.0972 3.05885C11.0371 3.05584 11.7968 3.86313 11.8205 4.89898C11.8297 5.29978 11.822 5.70078 11.822 6.16682C12.2317 6.16682 12.6319 6.1547 13.0313 6.1693C13.8894 6.20058 14.5994 6.92937 14.682 7.84767C14.7637 8.75645 14.2243 9.6209 13.3935 9.81726C13.0153 9.90664 12.6123 9.8736 12.2204 9.89297C12.1033 9.89877 11.9858 9.8939 11.8229 9.8939C11.8229 10.3024 11.8259 10.6857 11.8223 11.0687C11.8121 12.1649 11.0724 12.9971 10.1089 13C9.14474 13.0028 8.39562 12.1707 8.38473 11.0809C8.381 10.7061 8.38415 10.3311 8.38415 9.89183C7.9742 9.89183 7.57399 9.90415 7.17445 9.88934C6.35617 9.85889 5.68068 9.20613 5.53779 8.3251C5.40158 7.4853 5.85356 6.61422 6.60985 6.30559C6.81703 6.22109 7.04856 6.18463 7.2712 6.17106C7.62605 6.14942 7.98299 6.16537 8.38454 6.16537ZM9.53015 5.8496C9.53015 6.12146 9.5333 6.39331 9.52948 6.66496C9.52232 7.1744 9.31858 7.4011 8.85352 7.40659C8.35225 7.41239 7.85079 7.40462 7.34953 7.40918C6.92477 7.41301 6.67022 7.64717 6.66735 8.02456C6.66449 8.40184 6.92114 8.64522 7.34093 8.64957C7.84229 8.65485 8.34365 8.64719 8.84492 8.65216C9.31524 8.65682 9.52384 8.87938 9.52891 9.38405C9.53435 9.92756 9.52709 10.4713 9.53139 11.0148C9.53492 11.4725 9.75318 11.7518 10.0988 11.7551C10.4449 11.7582 10.6713 11.4774 10.6754 11.024C10.6803 10.4806 10.6732 9.93688 10.6779 9.39337C10.6823 8.8829 10.887 8.65755 11.353 8.65226C11.8542 8.64646 12.3556 8.65434 12.857 8.64967C13.2788 8.64574 13.5366 8.40858 13.5395 8.03378C13.5424 7.65805 13.2839 7.41353 12.8655 7.40928C12.3642 7.40421 11.8627 7.41187 11.3615 7.40669C10.8912 7.40182 10.6829 7.17906 10.6781 6.67418C10.6726 6.10468 10.6835 5.53518 10.6736 4.96588C10.6667 4.56882 10.4311 4.30649 10.1075 4.30359C9.78298 4.30079 9.54639 4.56188 9.53321 4.95677C9.52318 5.2539 9.5311 5.55196 9.53015 5.8496Z" fill="#D81E05"/>
<path fill-rule="evenodd" clip-rule="evenodd" d="M16.9839 17.2095C16.9822 19.1016 15.4317 20.6489 13.539 20.6471C11.648 20.6452 10.0997 19.0932 10.1016 17.2014C10.1036 15.3104 11.6553 13.7625 13.5471 13.7647C15.4399 13.7667 16.9856 15.3161 16.9839 17.2095ZM15.8365 17.2228C15.8438 15.9545 14.8162 14.9154 13.5511 14.9118C12.2989 14.9083 11.2641 15.9236 11.2491 17.1702C11.234 18.4392 12.2549 19.4881 13.5164 19.4996C14.7843 19.5113 15.8293 18.4858 15.8365 17.2228Z" fill="#D81E05"/>
<path fill-rule="evenodd" clip-rule="evenodd" d="M20.8086 17.1966C20.8126 15.3062 22.3666 13.7605 24.2589 13.7647C26.1513 13.7689 27.6949 15.3203 27.6909 17.2143C27.6871 19.1058 26.1343 20.651 24.2412 20.6471C22.3504 20.6432 20.8046 19.0893 20.8086 17.1966ZM24.2512 19.4997C25.516 19.4991 26.5481 18.4615 26.5436 17.1952C26.5389 15.9445 25.5159 14.9189 24.2662 14.9119C22.9986 14.9048 21.9594 15.9334 21.9562 17.1981C21.9529 18.4633 22.9869 19.5004 24.2512 19.4997Z" fill="#D81E05"/>
<path fill-rule="evenodd" clip-rule="evenodd" d="M27.2958 2.29416C28.3549 2.28842 29.2233 3.15434 29.22 4.21291C29.2167 5.25373 28.361 6.11178 27.3205 6.11763C26.2627 6.12347 25.393 5.25586 25.3965 4.19803C25.3999 3.1571 26.2552 2.29979 27.2958 2.29416ZM27.9426 4.19484C27.9364 3.84992 27.6417 3.56504 27.2975 3.5712C26.9518 3.57747 26.6678 3.87117 26.674 4.2162C26.6801 4.56123 26.9748 4.84633 27.3187 4.84017C27.6631 4.83411 27.9487 4.53859 27.9426 4.19484Z" fill="#D81E05"/>
<path fill-rule="evenodd" clip-rule="evenodd" d="M23.8818 6.11768C24.7267 6.12618 25.4108 7.00653 25.3965 8.06699C25.3825 9.10461 24.6863 9.94969 23.8525 9.94108C23.0081 9.93226 22.3239 9.05116 22.3381 7.99081C22.352 6.95308 23.0474 6.10928 23.8818 6.11768ZM23.8656 8.66374C24.1409 8.66491 24.3739 8.37536 24.3747 8.03087C24.3757 7.68627 24.1446 7.39576 23.8686 7.3947C23.5923 7.39363 23.3607 7.68149 23.3599 8.02725C23.3591 8.37228 23.5897 8.66247 23.8656 8.66374Z" fill="#D81E05"/>
<path fill-rule="evenodd" clip-rule="evenodd" d="M33.0442 8.03998C33.0393 9.08045 32.1822 9.93688 31.1412 9.94113C30.0839 9.94527 29.2157 9.07609 29.2207 8.01809C29.2257 6.96211 30.1035 6.10334 31.1632 6.11779C32.2024 6.13182 33.049 6.99696 33.0442 8.03998ZM31.1257 8.66382C31.4695 8.66775 31.7629 8.38011 31.7667 8.03563C31.7706 7.69135 31.4836 7.39862 31.1386 7.3949C30.7936 7.39118 30.5018 7.67712 30.4981 8.02277C30.4944 8.36747 30.7807 8.65988 31.1257 8.66382Z" fill="#D81E05"/>
<path fill-rule="evenodd" clip-rule="evenodd" d="M27.2977 9.94118C28.3567 9.93619 29.2241 10.8031 29.22 11.8619C29.2157 12.9026 28.3591 13.7598 27.3185 13.7647C26.2608 13.7696 25.3922 12.9011 25.3965 11.843C25.4009 10.8025 26.2571 9.94586 27.2977 9.94118ZM27.2943 12.4874C27.6379 12.4952 27.9347 12.2109 27.9427 11.8664C27.9504 11.5226 27.6666 11.2261 27.3218 11.2183C26.9772 11.2104 26.6818 11.4934 26.6739 11.8388C26.6662 12.1834 26.9494 12.4794 27.2943 12.4874Z" fill="#D81E05"/>
<path fill-rule="evenodd" clip-rule="evenodd" d="M17.001 4.58843C17.4179 4.59752 17.759 4.95283 17.7499 5.36858C17.741 5.78433 17.3839 6.12671 16.9691 6.11749C16.5524 6.10827 16.2118 5.75296 16.2209 5.3367C16.2298 4.9189 16.5839 4.57947 17.001 4.58843Z" fill="#D81E05"/>
<path fill-rule="evenodd" clip-rule="evenodd" d="M19.2807 5.31586C19.312 4.89937 19.8586 4.56846 20.481 4.58918C21.1045 4.61003 21.6035 4.97599 21.572 5.38941C21.5407 5.80372 20.9891 6.13771 20.3707 6.11673C19.7481 6.09575 19.2494 5.72941 19.2807 5.31586Z" fill="#D81E05"/>
</svg>
