<svg width="81" height="94" viewBox="0 0 81 94" fill="none" xmlns="http://www.w3.org/2000/svg">
<circle opacity="0.04" cx="40.5" cy="53.5" r="40.5" fill="#D81E05"/>
<path d="M16 49.5999L28.0499 28L40.0999 49.5999H16ZM28.1149 76C25.4216 76 23.1192 75.0383 21.2075 73.1149C19.2958 71.1916 18.3399 68.8642 18.3399 66.133C18.3399 63.3602 19.2958 61.0189 21.2075 59.1091C23.1192 57.1992 25.4216 56.2442 28.1149 56.2442C30.8249 56.2442 33.1316 57.2059 35.0349 59.1293C36.9383 61.0527 37.8899 63.3836 37.8899 66.1221C37.8899 68.8606 36.9383 71.1916 35.0349 73.1149C33.1316 75.0383 30.8249 76 28.1149 76ZM28.1149 73.019C30.0183 73.019 31.6317 72.3504 32.955 71.0131C34.2783 69.6758 34.94 68.0455 34.94 66.1221C34.94 64.1987 34.2783 62.5684 32.955 61.2311C31.6317 59.8939 30.0183 59.2253 28.1149 59.2253C26.2116 59.2253 24.5983 59.8939 23.2749 61.2311C21.9516 62.5684 21.2899 64.1987 21.2899 66.1221C21.2899 68.0455 21.9516 69.6758 23.2749 71.0131C24.5983 72.3504 26.2116 73.019 28.1149 73.019ZM21.0549 46.6189H35.07L28.0499 34.1236L21.0549 46.6189ZM44.275 76V56.2442H63.825V76H44.275ZM47.225 73.019H60.8751V59.2253H47.225V73.019ZM54.05 49.5999C52.0134 47.9022 50.2442 46.4151 48.7426 45.1385C47.2409 43.8619 46.0001 42.6888 45.0201 41.6193C44.0401 40.5499 43.3084 39.5166 42.8251 38.5196C42.3417 37.5225 42.1001 36.4681 42.1001 35.3566C42.1001 33.5881 42.6951 32.1094 43.8851 30.9204C45.0751 29.7313 46.5717 29.1368 48.3751 29.1368C49.4348 29.1368 50.4556 29.3953 51.4373 29.9124C52.4192 30.4295 53.29 31.2 54.05 32.224C54.8101 31.2 55.6851 30.4295 56.6751 29.9124C57.6651 29.3953 58.69 29.1368 59.75 29.1368C61.5303 29.1368 63.0171 29.7448 64.2103 30.9608C65.4034 32.1767 66 33.6673 66 35.4324C66 36.5271 65.7583 37.5688 65.275 38.5575C64.7916 39.5461 64.06 40.5709 63.08 41.6319C62.1 42.693 60.8592 43.8619 59.3575 45.1385C57.8559 46.4151 56.0867 47.9022 54.05 49.5999ZM54.05 45.6994C57.5334 42.8867 59.9042 40.7604 61.1626 39.3204C62.4209 37.8804 63.0501 36.6029 63.0501 35.488C63.0501 34.497 62.7528 33.6876 62.1581 33.0597C61.5635 32.4318 60.7791 32.1178 59.805 32.1178C59.224 32.1178 58.6506 32.2889 58.0847 32.6311C57.5188 32.9734 56.7655 33.5821 55.825 34.4572L54.05 36.17L52.2751 34.4572C51.3495 33.5455 50.5998 32.9276 50.0259 32.6037C49.452 32.2798 48.8751 32.1178 48.295 32.1178C47.3043 32.1178 46.5158 32.4191 45.9295 33.0218C45.3432 33.6244 45.05 34.4297 45.05 35.4374C45.05 36.5861 45.6792 37.8804 46.9375 39.3204C48.1959 40.7604 50.5667 42.8867 54.05 45.6994Z" fill="#D81E05"/>
<circle opacity="0.04" cx="23" cy="23" r="23" fill="#D81E05"/>
</svg>
