<svg width="25" height="19" viewBox="0 0 25 19" fill="none" xmlns="http://www.w3.org/2000/svg">
<path fill-rule="evenodd" clip-rule="evenodd" d="M0.396484 2.52724C0.499109 2.03515 0.650845 1.56578 0.968363 1.16251C1.54732 0.427121 2.29223 0.0167473 3.23174 0.0101428C4.59965 0.000515892 5.96783 -0.00743186 7.33557 0.011654C8.94813 0.0340421 10.161 1.28783 10.1737 2.91131C10.1746 3.02828 10.1738 3.14526 10.1738 3.28535C10.2917 3.28535 10.3845 3.28535 10.4772 3.28535C12.6913 3.28569 14.9054 3.27813 17.1193 3.28922C18.4555 3.29599 19.5779 4.20651 19.8746 5.50715C19.9305 5.75185 19.9446 6.00976 19.9486 6.26208C19.9586 6.89566 19.9519 7.52958 19.9519 8.19423C20.0537 8.19423 20.1377 8.19411 20.2216 8.19423C20.9807 8.1954 21.74 8.18852 22.4989 8.19982C23.4572 8.21404 24.4699 8.78936 24.6704 9.92623C24.6728 9.93944 24.6893 9.95018 24.6992 9.9621C24.6992 10.1527 24.6992 10.3434 24.6992 10.534C24.5762 11.1788 24.2173 11.691 23.8111 12.1866C22.6961 13.5473 21.5966 14.9208 20.4871 16.286C19.5606 17.426 18.3573 18.0041 16.8952 18.0084C13.9459 18.0171 10.9966 18.011 8.04731 18.011C6.47376 18.011 4.90033 18.0094 3.32684 18.0115C2.30176 18.0129 1.50066 17.5838 0.898293 16.7592C0.620631 16.3792 0.494984 15.9408 0.396484 15.4905C0.396484 11.1694 0.396484 6.84831 0.396484 2.52724ZM10.196 16.369C12.4424 16.369 14.6888 16.3701 16.9351 16.3685C17.8626 16.3678 18.6201 16.0035 19.2044 15.2798C20.3797 13.8242 21.555 12.3688 22.728 10.9111C22.8318 10.7821 22.9328 10.6461 23.0082 10.4995C23.1524 10.2192 23.0294 9.95057 22.7262 9.87328C22.5973 9.84048 22.4604 9.82559 22.3271 9.82553C17.7474 9.82318 13.1676 9.81719 8.58786 9.8294C7.7479 9.83164 7.03042 10.1868 6.49572 10.8395C5.28011 12.3235 4.08301 13.8228 2.88066 15.3176C2.79671 15.422 2.72291 15.5367 2.65847 15.6543C2.4715 15.9959 2.6224 16.2968 3.00698 16.3458C3.16329 16.3657 3.3226 16.368 3.48053 16.3681C5.7191 16.3695 7.95756 16.369 10.196 16.369ZM18.3116 8.19417C18.3167 8.09281 18.3237 8.01557 18.3239 7.93827C18.3248 7.39044 18.3262 6.8426 18.324 6.29476C18.3203 5.4026 17.8313 4.9165 16.9374 4.91594C15.4666 4.91498 13.9958 4.91571 12.5251 4.91566C11.6236 4.91566 10.7221 4.92008 9.82075 4.91414C9.05349 4.90905 8.56695 4.4206 8.54934 3.64961C8.54465 3.4433 8.54884 3.23683 8.54806 3.03041C8.5446 2.13069 8.06776 1.6508 7.16856 1.64918C5.91125 1.64694 4.654 1.64711 3.39674 1.65052C3.23977 1.65091 3.07772 1.65701 2.92688 1.69541C2.34825 1.84261 2.02332 2.33045 2.02315 3.03584C2.02243 6.51333 2.02276 9.99087 2.02326 13.4683C2.02326 13.5439 2.03007 13.6195 2.03664 13.7566C2.13224 13.6422 2.1915 13.5732 2.24869 13.5026C3.21613 12.3077 4.17867 11.1087 5.15196 9.91873C6.07893 8.78527 7.27202 8.1949 8.74138 8.19439C11.8332 8.19339 14.925 8.19411 18.0167 8.19411C18.1095 8.19417 18.2022 8.19417 18.3116 8.19417Z" fill="white"/>
</svg>
