<svg width="145" height="71" viewBox="0 0 145 71" fill="none" xmlns="http://www.w3.org/2000/svg">
<path d="M34.2943 40.4475L16.7799 49.9347C15.5696 50.5904 14.0582 50.1386 13.4039 48.9258L0.300181 24.6325C-0.35412 23.4197 0.0967157 21.9047 1.30735 21.249L12.4147 15.2326L25.8032 19.456L35.3009 37.0646C35.9555 38.2775 35.5047 39.7921 34.2943 40.4475Z" fill="#EBEBEB"/>
<path d="M23.5927 31.1518C23.5858 31.14 23.7362 31.0681 23.9728 30.8665C24.1998 30.6616 24.5183 30.3024 24.6756 29.7334C24.7516 29.4517 24.7808 29.1211 24.7234 28.7704C24.6982 28.5948 24.6415 28.4178 24.5698 28.2401C24.4905 28.0674 24.3889 27.8885 24.2873 27.7027C23.8807 26.958 23.4191 26.1132 22.9093 25.1807C22.6547 24.7125 22.3877 24.223 22.1101 23.7127C21.9712 23.4576 21.8297 23.1969 21.6855 22.9316C21.5404 22.663 21.4015 22.3994 21.2013 22.1715C20.8087 21.7109 20.2226 21.392 19.5844 21.3149C19.2656 21.2761 18.9346 21.2975 18.6162 21.3842C18.2954 21.4656 18.0045 21.635 17.6919 21.8051C15.2234 23.1493 12.5119 24.6255 9.66532 26.1759C9.01692 26.61 8.60802 27.3586 8.58672 28.1193C8.5687 28.4989 8.64406 28.8784 8.80034 29.2183C8.96187 29.5561 9.16206 29.9002 9.33833 30.2364C10.0637 31.5859 10.7636 32.8874 11.4303 34.1285C11.6 34.4316 11.7537 34.7606 11.931 35.0305C12.1177 35.302 12.3608 35.5279 12.6347 35.6934C13.1832 36.0273 13.8506 36.1084 14.4302 35.9465C14.7221 35.871 14.9803 35.7193 15.2496 35.5755C15.5154 35.4327 15.7762 35.2928 16.0321 35.1552C16.5432 34.8811 17.0343 34.6177 17.5032 34.3662C19.3704 33.3711 20.8857 32.563 21.9489 31.9963C22.4656 31.7258 22.8719 31.5133 23.1629 31.361C23.2939 31.295 23.3988 31.2421 23.481 31.2008C23.5534 31.1653 23.5911 31.1489 23.5927 31.1518C23.5944 31.1548 23.56 31.1778 23.4912 31.2191C23.4115 31.2654 23.31 31.3242 23.1828 31.3981C22.8968 31.5583 22.4968 31.7826 21.9879 32.0679C20.9326 32.6487 19.4281 33.4764 17.5739 34.4966C17.1071 34.7517 16.6182 35.0193 16.1094 35.2974C15.8545 35.4366 15.5947 35.5785 15.3299 35.7232C15.0691 35.8644 14.7926 36.0299 14.4767 36.114C13.8536 36.2919 13.1337 36.2085 12.5397 35.851C12.2429 35.674 11.9785 35.4304 11.7753 35.1375C11.5758 34.8338 11.4356 34.5294 11.26 34.2195C10.5896 32.981 9.88615 31.6811 9.15715 30.3336C8.97727 29.9918 8.78626 29.6678 8.61097 29.303C8.44092 28.9349 8.35868 28.5225 8.37769 28.1105C8.40029 27.285 8.84359 26.4721 9.54835 25.9999C12.4067 24.4223 15.1235 22.9753 17.5998 21.6334C17.9042 21.4692 18.2207 21.2867 18.5674 21.2C18.9101 21.1084 19.2656 21.0867 19.607 21.1304C20.2911 21.2164 20.9162 21.5615 21.333 22.0563C21.5456 22.3015 21.694 22.5882 21.8336 22.8508C21.9761 23.1171 22.1157 23.3785 22.253 23.6349C22.5266 24.1474 22.7893 24.6393 23.0403 25.1091C23.5396 26.0469 23.9921 26.8969 24.3909 27.6462C24.4898 27.8327 24.5881 28.0103 24.6703 28.1965C24.7431 28.384 24.7994 28.5705 24.8227 28.7543C24.8764 29.1211 24.8397 29.4645 24.7545 29.7551C24.5793 30.3408 24.2405 30.7004 24.0006 30.898C23.7503 31.0937 23.5927 31.1518 23.5927 31.1518Z" fill="#FAFAFA"/>
<path d="M24.9381 28.9382C24.9351 28.9451 24.8673 28.9231 24.7405 28.8755C24.5921 28.8164 24.4106 28.7445 24.1901 28.6568C23.6865 28.446 23.0079 28.1623 22.1823 27.8166C21.757 27.6353 21.2944 27.4383 20.7999 27.2272C20.5513 27.1205 20.2944 27.0105 20.0303 26.8969C19.8993 26.8411 19.7659 26.7846 19.6313 26.7272C19.509 26.6819 19.3734 26.6654 19.2427 26.6953C18.9799 26.7456 18.7489 26.9652 18.6978 27.2413C18.645 27.5546 18.5913 27.874 18.5369 28.1991C18.4272 28.8525 18.3138 29.5285 18.1975 30.2207C18.1451 30.5306 18.093 30.8376 18.0442 31.1259L18.0245 31.2415L17.9124 31.2096C17.2889 31.0333 16.6825 30.8616 16.0973 30.6964C15.9515 30.6551 15.8067 30.614 15.6638 30.5733C15.5144 30.5306 15.3939 30.4906 15.2635 30.5024C15.0053 30.5142 14.7658 30.6685 14.6465 30.8846C14.5839 30.9867 14.5594 31.1164 14.5197 31.25C14.483 31.38 14.447 31.5084 14.4113 31.6348C14.3402 31.887 14.2707 32.1319 14.2039 32.3686C14.0699 32.8388 13.9447 33.2775 13.8297 33.6803C13.6026 34.4559 13.4165 35.0915 13.2779 35.5647C13.2147 35.7666 13.1623 35.9337 13.119 36.0716C13.0807 36.1869 13.0574 36.246 13.0509 36.244C13.044 36.242 13.0545 36.1793 13.0804 36.0604C13.1138 35.9199 13.1541 35.7498 13.2029 35.544C13.3258 35.0662 13.4909 34.425 13.6924 33.6422C13.7999 33.2374 13.9165 32.7965 14.0417 32.3237C14.1052 32.0856 14.1711 31.8397 14.2389 31.5869C14.273 31.4598 14.3074 31.3314 14.3425 31.2007C14.3788 31.0763 14.4031 30.9309 14.4824 30.7916C14.6291 30.5201 14.926 30.3238 15.2517 30.306C15.4148 30.2896 15.5816 30.3428 15.7169 30.3809C15.8604 30.4206 16.0052 30.4607 16.1514 30.5011C16.7369 30.6642 17.344 30.8333 17.9681 31.0074L17.8368 31.0908C17.8852 30.8025 17.937 30.4955 17.9891 30.1852C18.1067 29.4934 18.2217 28.8177 18.3328 28.1646C18.3895 27.8373 18.4455 27.5155 18.5002 27.2003C18.569 26.845 18.8685 26.565 19.2037 26.5046C19.3704 26.4688 19.5451 26.4904 19.6984 26.5499C19.835 26.61 19.97 26.6687 20.1034 26.7268C20.3658 26.8434 20.6214 26.9567 20.8684 27.0667C21.3596 27.286 21.8183 27.4909 22.2406 27.6793C23.0554 28.05 23.7251 28.3551 24.2218 28.581C24.4358 28.6831 24.6124 28.7668 24.7562 28.8357C24.8784 28.8968 24.9407 28.9319 24.9381 28.9382Z" fill="#FAFAFA"/>
<path d="M15.5504 27.898C15.5412 27.8819 15.6415 27.8241 15.7817 27.6813C15.9193 27.5408 16.094 27.2929 16.1395 26.9445C16.1903 26.604 16.0763 26.1582 15.7303 25.8591C15.3974 25.557 14.8279 25.4516 14.3679 25.7061C13.9033 25.952 13.6792 26.4875 13.7494 26.9321C13.8096 27.3858 14.1193 27.7256 14.4315 27.8695C14.7473 28.0221 15.0501 28.0113 15.2427 27.9729C15.4387 27.9341 15.5422 27.8816 15.5504 27.898C15.556 27.9066 15.4655 27.9854 15.2631 28.053C15.0645 28.1183 14.7336 28.1577 14.3706 28.0054C14.0128 27.8626 13.6399 27.4873 13.558 26.9606C13.4643 26.4461 13.7208 25.8101 14.2683 25.5202C14.8099 25.2201 15.4809 25.3531 15.8594 25.7139C16.2542 26.0708 16.3633 26.5889 16.2866 26.9672C16.2152 27.355 16.0006 27.6107 15.8371 27.7414C15.6697 27.8747 15.5543 27.9075 15.5504 27.898Z" fill="#FAFAFA"/>
<path d="M34.6535 40.2533L16.4221 50.1286C15.4101 50.677 14.1457 50.2991 13.5985 49.2848L9.89453 42.4177L31.7918 30.5569L35.4958 37.4237C36.043 38.4383 35.6659 39.705 34.6535 40.2533Z" fill="#E0E0E0"/>
<path d="M12.416 15.2321L16.1036 22.0691C16.7121 23.1972 18.1176 23.6175 19.2434 23.0078L25.8041 19.4555L12.416 15.2321Z" fill="#EBEBEB"/>
<path d="M16.5156 22.6207C16.5156 22.6207 17.3236 24.3257 19.5018 23.8506C19.5837 23.8326 19.6643 23.8086 19.7436 23.7823C20.6829 23.4721 26.8639 21.4226 26.7941 21.2929C26.7184 21.1524 25.8033 19.4555 25.8033 19.4555L19.2429 23.0088C19.2429 23.0091 17.5746 23.8405 16.5156 22.6207Z" fill="#E0E0E0"/>
<path d="M21.0597 41.5883L21.7798 41.1983L22.5265 42.5832C22.3041 43.0688 21.8699 43.4992 21.3837 43.7629C20.3133 44.3427 19.1282 44.0334 18.5732 43.0044C18.0182 41.9754 18.4094 40.8125 19.4945 40.2251C20.0931 39.901 20.6996 39.8367 21.2382 40.0428L20.9846 40.7849C20.5944 40.6558 20.2416 40.6893 19.8962 40.8765C19.2344 41.235 19.0214 41.9235 19.371 42.572C19.7154 43.2106 20.4126 43.4191 21.0646 43.0662C21.2789 42.9499 21.4571 42.8028 21.5987 42.5878L21.0597 41.5883Z" fill="#FAFAFA"/>
<path d="M21.6152 39.1511L22.4035 38.7239L24.2446 42.137L23.4563 42.5641L21.6152 39.1511Z" fill="#FAFAFA"/>
<path d="M24.3413 38.4941L24.8279 39.396L26.4045 38.542L26.7462 39.1757L25.1693 40.03L25.8399 41.2731L25.052 41.7003L23.2109 38.2872L25.7849 36.8931L26.1266 37.5268L24.3413 38.4941Z" fill="#FAFAFA"/>
<path d="M118.506 57.5172L106.13 51.5251C105.275 51.1107 104.917 50.0804 105.33 49.2231L113.606 32.0561C114.02 31.1991 115.048 30.8399 115.904 31.2543L123.752 35.0544L126.803 44.2718L120.804 56.7151C120.39 57.5724 119.361 57.9312 118.506 57.5172Z" fill="#EBEBEB"/>
<path d="M119.375 47.7577C119.379 47.7489 119.48 47.8044 119.689 47.8556C119.895 47.9002 120.224 47.9337 120.605 47.7922C120.794 47.721 120.99 47.6034 121.162 47.4297C121.251 47.3444 121.327 47.2413 121.397 47.129C121.461 47.0147 121.52 46.8857 121.583 46.7537C121.834 46.2247 122.12 45.6242 122.435 44.9613C122.593 44.6294 122.759 44.282 122.932 43.9198C123.018 43.7386 123.107 43.5541 123.197 43.3659C123.288 43.1758 123.38 42.9913 123.426 42.7871C123.525 42.3806 123.466 41.9229 123.251 41.5338C123.145 41.3391 122.999 41.1621 122.821 41.0187C122.646 40.8719 122.434 40.777 122.213 40.6703C120.464 39.8284 118.544 38.9038 116.528 37.9333C116.023 37.7451 115.44 37.8177 115.006 38.1135C114.787 38.257 114.605 38.452 114.479 38.6773C114.355 38.9045 114.244 39.1557 114.127 39.3904C113.667 40.3426 113.222 41.2613 112.799 42.1366C112.698 42.3543 112.576 42.5736 112.497 42.7821C112.421 42.9965 112.393 43.2244 112.411 43.4451C112.446 43.8877 112.671 44.2948 112.995 44.5545C113.155 44.6878 113.344 44.7712 113.533 44.8644C113.721 44.9557 113.904 45.0454 114.084 45.1334C114.444 45.3093 114.789 45.4784 115.12 45.6396C116.43 46.2852 117.494 46.8089 118.24 47.1763C118.6 47.3572 118.883 47.499 119.085 47.6008C119.175 47.6478 119.247 47.6848 119.303 47.7144C119.352 47.7407 119.376 47.7554 119.375 47.7577C119.374 47.76 119.348 47.7499 119.297 47.7279C119.239 47.7019 119.165 47.6684 119.072 47.6271C118.867 47.5312 118.58 47.3976 118.216 47.2272C117.464 46.8696 116.394 46.36 115.075 45.7322C114.744 45.5737 114.397 45.4075 114.035 45.2342C113.855 45.1475 113.671 45.0591 113.482 44.9689C113.298 44.8795 113.094 44.7912 112.92 44.6481C112.569 44.3703 112.324 43.933 112.284 43.4549C112.263 43.2169 112.292 42.97 112.373 42.7375C112.462 42.5031 112.576 42.3015 112.678 42.0775C113.099 41.2012 113.541 40.2812 113.999 39.3277C114.117 39.0887 114.222 38.8506 114.354 38.6051C114.491 38.3611 114.688 38.148 114.926 37.9924C115.397 37.6716 116.029 37.5915 116.578 37.7964C118.615 38.7623 120.52 39.702 122.27 40.5488C122.485 40.6532 122.715 40.757 122.903 40.9165C123.093 41.0718 123.249 41.2623 123.363 41.4714C123.591 41.8897 123.651 42.3803 123.543 42.814C123.492 43.0323 123.392 43.2313 123.301 43.4158C123.21 43.6033 123.12 43.7875 123.033 43.9678C122.857 44.3286 122.689 44.6747 122.527 45.0053C122.205 45.6646 121.913 46.2618 121.656 46.7882C121.592 46.9192 121.532 47.0459 121.461 47.1671C121.386 47.2836 121.304 47.3907 121.211 47.478C121.028 47.6563 120.821 47.7742 120.625 47.8438C120.227 47.9823 119.889 47.9373 119.681 47.8825C119.472 47.8224 119.375 47.7577 119.375 47.7577Z" fill="#FAFAFA"/>
<path d="M121.157 47.6182C121.151 47.6195 121.136 47.5722 121.112 47.4819C121.085 47.3752 121.051 47.2439 121.011 47.085C120.925 46.7176 120.81 46.2218 120.669 45.619C120.599 45.307 120.522 44.9682 120.44 44.6054C120.399 44.4225 120.357 44.234 120.313 44.04C120.292 43.9438 120.269 43.8463 120.247 43.7474C120.223 43.6604 120.177 43.5777 120.108 43.5166C119.974 43.3896 119.757 43.3488 119.583 43.4316C119.386 43.5288 119.186 43.6276 118.982 43.7284C118.573 43.9307 118.15 44.1401 117.716 44.3545C117.521 44.4504 117.329 44.5453 117.148 44.6346L117.076 44.6697L117.049 44.5946C116.895 44.1736 116.746 43.7639 116.602 43.3692C116.566 43.2704 116.531 43.1725 116.496 43.0757C116.459 42.9749 116.433 42.8908 116.374 42.8225C116.263 42.6823 116.079 42.6104 115.911 42.6308C115.828 42.6373 115.746 42.6758 115.655 42.7073C115.568 42.7395 115.482 42.7706 115.397 42.8018C115.227 42.8636 115.062 42.924 114.902 42.9821C114.586 43.097 114.29 43.2041 114.019 43.3026C113.494 43.4884 113.063 43.6407 112.743 43.7543C112.605 43.8006 112.491 43.8387 112.396 43.8702C112.316 43.8952 112.273 43.906 112.272 43.9018C112.27 43.8972 112.309 43.8778 112.386 43.8443C112.478 43.8062 112.59 43.7599 112.725 43.7041C113.041 43.5803 113.466 43.4135 113.985 43.2103C114.254 43.1072 114.548 42.9942 114.862 42.8737C115.021 42.8133 115.185 42.7509 115.354 42.6866C115.438 42.6544 115.524 42.6219 115.611 42.5888C115.695 42.5589 115.786 42.5136 115.896 42.5017C116.108 42.4745 116.337 42.5618 116.478 42.7372C116.553 42.8222 116.591 42.9371 116.624 43.0284C116.66 43.1249 116.697 43.2224 116.733 43.3209C116.878 43.7153 117.029 44.1244 117.184 44.545L117.084 44.5049C117.265 44.4159 117.457 44.3207 117.652 44.2245C118.086 44.0111 118.51 43.8026 118.919 43.601C119.125 43.5005 119.327 43.402 119.526 43.3055C119.752 43.2004 120.029 43.2556 120.199 43.4191C120.286 43.4982 120.345 43.6046 120.373 43.7146C120.395 43.8157 120.416 43.9149 120.438 44.0131C120.479 44.2078 120.519 44.3966 120.557 44.5801C120.633 44.9439 120.704 45.2844 120.769 45.5976C120.891 46.2047 120.991 46.7035 121.066 47.0732C121.096 47.2344 121.12 47.3674 121.14 47.4764C121.156 47.568 121.161 47.6172 121.157 47.6182Z" fill="#FAFAFA"/>
<path d="M117.944 41.9308C117.949 41.9189 118.022 41.9518 118.158 41.9731C118.293 41.9935 118.502 41.9915 118.715 41.8759C118.926 41.7669 119.128 41.523 119.156 41.2081C119.19 40.8995 119.019 40.537 118.691 40.3817C118.366 40.2208 117.976 40.3111 117.756 40.5301C117.526 40.7471 117.462 41.0581 117.507 41.2915C117.549 41.5305 117.678 41.6953 117.777 41.7886C117.879 41.8828 117.95 41.9196 117.944 41.9308C117.941 41.9373 117.861 41.9183 117.741 41.8319C117.625 41.7469 117.469 41.5775 117.407 41.3122C117.342 41.0538 117.401 40.6926 117.662 40.4342C117.912 40.1735 118.37 40.0606 118.754 40.2507C119.14 40.4336 119.337 40.8633 119.289 41.2216C119.249 41.587 119.004 41.8579 118.761 41.9672C118.515 42.0838 118.286 42.067 118.147 42.0283C118.006 41.9882 117.94 41.937 117.944 41.9308Z" fill="#FAFAFA"/>
<path d="M118.178 57.3586L106.457 51.683C105.421 51.1816 104.987 49.933 105.487 48.8948L107.546 44.6241L123.02 52.1161L120.961 56.3867C120.46 57.4253 119.214 57.8603 118.178 57.3586Z" fill="#E0E0E0"/>
<path d="M123.752 35.0541L121.423 39.8856C121.039 40.6828 121.372 41.6412 122.167 42.0266L126.803 44.2718L123.752 35.0541Z" fill="#EBEBEB"/>
<path d="M121.282 40.3403C121.282 40.3403 120.656 41.4826 121.802 42.5126C121.845 42.551 121.89 42.5868 121.937 42.6206C122.49 43.0222 126.133 45.6617 126.177 45.5697C126.224 45.4706 126.802 44.2715 126.802 44.2715L122.167 42.027C122.167 42.027 121.028 41.4271 121.282 40.3403Z" fill="#E0E0E0"/>
<path d="M112.522 50.5535L113.031 50.8001L112.559 51.7785C112.198 51.8498 111.783 51.7802 111.439 51.6137C110.682 51.2476 110.376 50.4577 110.727 49.731C111.077 49.0038 111.885 48.7533 112.651 49.1246C113.074 49.3292 113.355 49.6437 113.458 50.0292L112.941 50.1868C112.855 49.9156 112.694 49.731 112.45 49.6132C111.982 49.3869 111.511 49.5455 111.29 50.0036C111.073 50.4547 111.238 50.9301 111.699 51.1531C111.85 51.2266 112.005 51.2673 112.182 51.2594L112.522 50.5535Z" fill="#FAFAFA"/>
<path d="M114.108 49.8811L114.665 50.1507L113.502 52.5623L112.945 52.2927L114.108 49.8811Z" fill="#FAFAFA"/>
<path d="M115.576 51.1442L115.269 51.7815L116.383 52.3213L116.167 52.7688L115.053 52.2293L114.629 53.108L114.072 52.8384L115.235 50.4265L117.054 51.3074L116.838 51.7552L115.576 51.1442Z" fill="#FAFAFA"/>
<path d="M26.3234 60.0822L14.0719 8.17622C13.5592 6.00395 14.2512 3.66259 15.9457 2.31182C16.794 1.63512 17.8159 1.24407 18.906 1.24407L52.8231 0.169753C54.618 0.112951 56.2824 1.1541 57.0936 2.84175L60.4755 9.87602L103.55 9.91739C106.713 9.91739 110.035 14.3174 109.66 18.0092L113.334 61.2596C112.804 66.4732 108.209 70.3978 103.742 70.3978H35.694C31.0202 70.3972 27.0711 66.3137 26.3234 60.0822Z" fill="#FF725E"/>
<g opacity="0.3">
<path d="M26.3234 60.0822L14.0719 8.17622C13.5592 6.00395 14.2512 3.66259 15.9457 2.31182C16.794 1.63512 17.8159 1.24407 18.906 1.24407L52.8231 0.169753C54.618 0.112951 56.2824 1.1541 57.0936 2.84175L60.4755 9.87602L103.55 9.91739C106.713 9.91739 110.035 14.3174 109.66 18.0092L113.334 61.2596C112.804 66.4732 108.209 70.3978 103.742 70.3978H35.694C31.0202 70.3972 27.0711 66.3137 26.3234 60.0822Z" fill="black"/>
</g>
<path d="M26.9093 61.5945L23.668 4.08877L104.004 2.87064L106.821 60.5021L26.9093 61.5945Z" fill="#E0E0E0"/>
<path d="M26.0061 7.02737C26.3028 7.02737 26.5434 6.76703 26.5434 6.44589C26.5434 6.12475 26.3028 5.86441 26.0061 5.86441C25.7093 5.86441 25.4688 6.12475 25.4688 6.44589C25.4688 6.76703 25.7093 7.02737 26.0061 7.02737Z" fill="#EBEBEB"/>
<path d="M28.092 7.02737C28.3888 7.02737 28.6294 6.76703 28.6294 6.44589C28.6294 6.12475 28.3888 5.86441 28.092 5.86441C27.7953 5.86441 27.5547 6.12475 27.5547 6.44589C27.5547 6.76703 27.7953 7.02737 28.092 7.02737Z" fill="#EBEBEB"/>
<path d="M30.176 7.02737C30.4728 7.02737 30.7133 6.76703 30.7133 6.44589C30.7133 6.12475 30.4728 5.86441 30.176 5.86441C29.8792 5.86441 29.6387 6.12475 29.6387 6.44589C29.6387 6.76703 29.8792 7.02737 30.176 7.02737Z" fill="#EBEBEB"/>
<path d="M55.3409 6.4459L60.1871 35.3066L22.059 41.0456L17.2129 12.1852L55.3409 6.4459Z" fill="#EBEBEB"/>
<path d="M55.34 6.44591C55.34 6.44591 55.2765 6.45904 55.1559 6.4794C55.0301 6.49976 54.8531 6.52766 54.6218 6.56542C54.1464 6.63963 53.4535 6.74765 52.5524 6.88785C50.7406 7.16694 48.0991 7.57309 44.7506 8.08759C38.0553 9.10707 28.5396 10.5563 17.2277 12.2788L17.311 12.1701C18.7568 20.7597 20.414 30.6062 22.1679 41.0262L22.1682 41.0292L22.0401 40.9412C36.1566 38.8231 49.2754 36.8547 60.1708 35.2196L60.0938 35.3207C58.6541 26.6271 57.4612 19.4211 56.6263 14.3818C56.2135 11.8605 55.8895 9.8826 55.6677 8.52821C55.5595 7.85513 55.4763 7.33833 55.419 6.98307C55.3643 6.6324 55.34 6.44591 55.34 6.44591C55.34 6.44591 55.3757 6.6173 55.437 6.96107C55.4986 7.31173 55.5874 7.82196 55.7037 8.48652C55.9357 9.83466 56.2745 11.804 56.7066 14.3135C57.5664 19.363 58.7953 26.5827 60.2779 35.2928L60.2927 35.3802L60.2006 35.394C49.3068 37.0389 36.19 39.0194 22.0758 41.1507L21.9651 41.1674L21.9474 41.0627L21.9471 41.0594C20.2014 30.6387 18.5521 20.7909 17.1134 12.2L17.0977 12.1061L17.1966 12.0916C28.5415 10.4033 38.0844 8.98362 44.7995 7.98482C48.1417 7.49264 50.7786 7.10422 52.5872 6.83794C53.4813 6.70825 54.1694 6.60876 54.6412 6.54047C54.8682 6.50829 55.0425 6.484 55.166 6.46659C55.2827 6.45083 55.34 6.44591 55.34 6.44591Z" fill="#263238"/>
<path d="M23.0681 39.0309L58.517 33.6951L54.2813 8.46811L18.832 13.8039L23.0681 39.0309Z" fill="#455A64"/>
<g opacity="0.3">
<path d="M23.0684 39.0309L32.8167 21.4866L42.1338 30.1426L46.4551 24.115L58.5173 33.6951L23.0684 39.0309Z" fill="black"/>
</g>
<g opacity="0.3">
<path d="M43.4189 17.9209C43.664 19.3803 42.6133 20.7518 41.0714 20.9839C39.5298 21.2157 38.0817 20.2209 37.8362 18.7611C37.5912 17.3013 38.6422 15.9302 40.1838 15.6981C41.7257 15.4666 43.1739 16.4614 43.4189 17.9209Z" fill="black"/>
</g>
<path d="M29.2277 64.3216L28.1426 8.36895L110.31 8.19427L109.971 63.4893L29.2277 64.3216Z" fill="#EBEBEB"/>
<path d="M32.3674 11.1414C32.6642 11.1414 32.9047 10.8811 32.9047 10.5599C32.9047 10.2388 32.6642 9.97845 32.3674 9.97845C32.0707 9.97845 31.8301 10.2388 31.8301 10.5599C31.8301 10.8811 32.0707 11.1414 32.3674 11.1414Z" fill="#E0E0E0"/>
<path d="M34.2932 11.1414C34.59 11.1414 34.8305 10.8811 34.8305 10.5599C34.8305 10.2388 34.59 9.97845 34.2932 9.97845C33.9964 9.97845 33.7559 10.2388 33.7559 10.5599C33.7559 10.8811 33.9964 11.1414 34.2932 11.1414Z" fill="#E0E0E0"/>
<path d="M30.3225 11.1414C30.6192 11.1414 30.8598 10.8811 30.8598 10.5599C30.8598 10.2388 30.6192 9.97845 30.3225 9.97845C30.0257 9.97845 29.7852 10.2388 29.7852 10.5599C29.7852 10.8811 30.0257 11.1414 30.3225 11.1414Z" fill="#E0E0E0"/>
<path d="M31.1387 65.6865V12.486L112.967 12.3139L108.574 66.8298L31.1387 65.6865Z" fill="#FAFAFA"/>
<path d="M27.1555 59.7969L32.0499 19.8213C32.4326 16.6952 34.654 14.3798 37.2702 14.3798H112.01C115.173 14.3798 117.625 17.718 117.249 21.5119L113.335 61.0068C112.19 69.2217 109.041 70.3978 104.574 70.3978H34.7287C30.0545 70.3972 25.5314 69.2211 27.1555 59.7969Z" fill="#FF725E"/>
<g opacity="0.7">
<path d="M76.9896 35.4984L79.1409 39.8662C79.3155 40.2205 79.653 40.4664 80.0432 40.5232L84.853 41.2235C85.8359 41.367 86.2287 42.5773 85.5171 43.2724L82.0366 46.6719C81.7545 46.9477 81.6257 47.3454 81.6922 47.7348L82.5139 52.5354C82.6817 53.5164 81.6539 54.2644 80.7745 53.8014L76.4722 51.5349C76.1236 51.3507 75.7062 51.3507 75.3572 51.5349L71.0553 53.8014C70.1759 54.2644 69.1484 53.5164 69.3159 52.5354L70.1376 47.7348C70.2041 47.345 70.0757 46.9477 69.7929 46.6719L66.3127 43.2724C65.6011 42.5773 65.9936 41.3667 66.9765 41.2235L71.7866 40.5232C72.1768 40.4664 72.5143 40.2205 72.6889 39.8662L74.8399 35.4984C75.2802 34.6056 76.5502 34.6056 76.9896 35.4984Z" fill="white"/>
</g>
<path d="M7.77539 70.3971C7.77539 70.3495 38.4967 70.3118 76.3843 70.3118C114.286 70.3118 145 70.3495 145 70.3971C145 70.4448 114.286 70.4825 76.3843 70.4825C38.4967 70.4825 7.77539 70.4448 7.77539 70.3971Z" fill="#263238"/>
<path d="M13.5811 51.0001C14.494 51.3353 15.1968 52.1223 15.5785 53.0183C15.9602 53.9144 16.0476 54.9128 15.9942 55.8857C15.891 57.7677 14.9399 59.7174 13.8849 61.2783C12.2339 59.9951 11.7336 57.6187 11.5553 56.3969C11.2732 54.4666 11.9341 50.8054 13.5811 51.0001Z" fill="#FF725E"/>
<path d="M15.8903 64.2583C15.5774 63.2161 15.9492 62.0312 16.7169 61.2609C17.4846 60.4913 18.5982 60.1193 19.684 60.1393C20.1863 60.1488 20.7348 60.2637 21.045 60.6594C21.335 61.0294 21.336 61.5692 21.143 61.9983C20.95 62.4275 20.5922 62.7601 20.2096 63.0326C18.8977 63.9683 17.4567 64.6322 15.8903 64.2583Z" fill="#FF725E"/>
<path d="M14.2061 70.1092C14.1966 70.1079 14.2104 69.97 14.2398 69.7224C14.2736 69.4492 14.3172 69.0966 14.3696 68.6727C14.4928 67.7948 14.6442 66.5385 15.2474 65.2932C15.8414 64.0504 16.7194 63.1104 17.4766 62.6248C17.8521 62.3766 18.1843 62.2226 18.4206 62.1388C18.5369 62.0919 18.6325 62.0715 18.6955 62.0515C18.759 62.0341 18.7928 62.0279 18.7944 62.0321C18.8075 62.0617 18.2577 62.1943 17.5313 62.7042C16.802 63.2013 15.9547 64.1312 15.3702 65.3519C14.7788 66.5724 14.6127 67.8118 14.4653 68.6865C14.3955 69.1271 14.3385 69.4844 14.2926 69.73C14.2464 69.9759 14.2153 70.1112 14.2061 70.1092Z" fill="#263238"/>
<path d="M13.3234 53.8323C13.3283 53.8316 13.3378 53.8894 13.3522 53.9991C13.3666 54.1229 13.3856 54.2824 13.4085 54.4794C13.4551 54.8967 13.5147 55.5015 13.5822 56.2495C13.7175 57.7451 13.8751 59.8136 13.998 62.1024C14.1202 64.3912 14.1841 66.465 14.2096 67.9668C14.2224 68.7177 14.2276 69.3251 14.226 69.7451C14.224 69.9434 14.2224 70.1036 14.2211 70.2287C14.2185 70.339 14.2145 70.3975 14.21 70.3975C14.2054 70.3975 14.1998 70.3397 14.1936 70.2294C14.188 70.1043 14.1811 69.944 14.1729 69.7457C14.1582 69.309 14.1382 68.7069 14.1133 67.9694C14.0635 66.4689 13.9842 64.3968 13.862 62.1093C13.7391 59.8224 13.5966 57.7536 13.4862 56.257C13.4318 55.5216 13.3879 54.9201 13.3558 54.484C13.343 54.2864 13.3329 54.1261 13.325 54.0017C13.3194 53.8914 13.3188 53.8329 13.3234 53.8323Z" fill="#263238"/>
<path d="M13.2365 65.5549C12.748 63.313 11.1078 61.3558 8.98893 60.4857C8.4493 60.2644 7.75404 60.1393 7.34482 60.5563C6.93527 60.9733 7.07288 61.6713 7.31599 62.2039C8.32709 64.4182 10.7838 65.8802 13.2083 65.7111" fill="#FF725E"/>
<path d="M9.34592 62.2446C9.34953 62.2364 9.47076 62.281 9.68766 62.371C9.79676 62.4153 9.92978 62.4698 10.0762 62.5506C10.2227 62.6307 10.3983 62.7072 10.5736 62.8244C10.7518 62.9354 10.9507 63.0533 11.1463 63.2059C11.3504 63.3471 11.551 63.5202 11.761 63.7044C12.1712 64.0813 12.5886 64.536 12.9536 65.0683C13.3137 65.6044 13.584 66.1603 13.7806 66.6824C13.8707 66.9473 13.9578 67.1979 14.0099 67.4412C14.0771 67.6805 14.1102 67.91 14.1436 68.1179C14.1845 68.325 14.1859 68.5174 14.2026 68.6836C14.2199 68.8504 14.2173 68.9945 14.2147 69.112C14.2111 69.3475 14.2045 69.4768 14.195 69.4768C14.1642 69.4775 14.1878 68.9554 14.0482 68.1333C14.0089 67.9287 13.9712 67.7041 13.9001 67.4697C13.8441 67.2317 13.7547 66.9861 13.6626 66.727C13.4627 66.2158 13.1941 65.6721 12.8406 65.1458C12.4821 64.623 12.0752 64.1742 11.6761 63.7979C11.4713 63.6144 11.2767 63.4407 11.0782 63.2979C10.8885 63.1432 10.6955 63.0227 10.5222 62.9075C9.8197 62.4606 9.3338 62.2722 9.34592 62.2446Z" fill="#263238"/>
</svg>
