<svg width="113" height="23" viewBox="0 0 113 23" fill="none" xmlns="http://www.w3.org/2000/svg">
<path fill-rule="evenodd" clip-rule="evenodd" d="M34.2718 5.54565L37.1651 11.3668L40.0584 5.54565H44.4329V17.188H40.0584V11.3668L37.1651 17.188L34.2718 11.3668V17.188H29.8967V5.54565H34.2718Z" fill="#BE1F24"/>
<path fill-rule="evenodd" clip-rule="evenodd" d="M45.8367 17.1891L49.2393 5.54565H56.9697L60.3718 17.1891H55.9967L55.4389 15.2779H50.769L50.2112 17.1891H45.8367ZM53.1045 7.28982L51.3285 13.3678H54.8805L53.1045 7.28982Z" fill="#BE1F24"/>
<path fill-rule="evenodd" clip-rule="evenodd" d="M69.9545 5.55243C71.8621 5.55243 73.4079 7.07098 73.4079 8.94548C73.4079 10.82 71.8621 12.3391 69.9545 12.3391H66.1406V17.1888H61.7661V5.55188H69.9545V5.55243ZM67.1638 6.88533C68.1496 6.88533 69.1081 7.40393 69.1081 8.45864C69.1081 9.5139 68.2621 10.3687 67.1638 10.3687H66.2153V6.88533H67.1638Z" fill="#BE1F24"/>
<path fill-rule="evenodd" clip-rule="evenodd" d="M74.9254 5.54565H86.556V7.45739L79.2999 7.45684V10.4178H86.556V12.3279H79.2999V17.1891H74.9254V5.54565Z" fill="#BE1F24"/>
<path fill-rule="evenodd" clip-rule="evenodd" d="M105.743 15.2779H113V17.1891H101.369V5.54565H113V7.45739H105.743V10.4178H113V12.3279H105.743V15.2779Z" fill="#BE1F24"/>
<path fill-rule="evenodd" clip-rule="evenodd" d="M99.7265 14.2791V17.1886H95.4244V14.3733C95.4261 14.3421 95.4266 14.3103 95.4266 14.2791C95.4266 13.2244 94.5551 12.369 93.4829 12.369H92.5344V17.1886L88.0875 17.1897V5.55005H96.7658C98.4013 5.55005 99.7265 6.85283 99.7265 8.45955C99.7265 10.0674 98.4008 11.3696 96.7658 11.3696C98.3684 11.3696 99.6752 12.6198 99.7265 14.1838C99.7276 14.215 99.7265 14.2468 99.7265 14.2791ZM99.7265 14.1838V14.2791C99.7265 14.2468 99.7276 14.215 99.7265 14.1838ZM93.4829 6.88624C94.4447 6.88624 95.4266 7.40483 95.4266 8.45955C95.4266 9.51536 94.5568 10.3696 93.4829 10.3696H92.5344V6.88624H93.4829Z" fill="#BE1F24"/>
<path fill-rule="evenodd" clip-rule="evenodd" d="M14.5641 7.38686C14.8255 7.49474 15.0088 7.74884 15.0088 8.0451C15.0088 8.20062 14.9581 8.34464 14.8723 8.46184L12.4493 12.5613C12.3902 12.678 12.2676 12.7574 12.1255 12.7574C11.9806 12.7574 11.8564 12.6741 11.799 12.5526L9.37709 8.45581C9.29517 8.34026 9.24669 8.19953 9.24669 8.04838C9.24669 7.76253 9.41833 7.51664 9.66408 7.40219C9.67968 7.39069 9.69975 7.38138 9.72705 7.37098C10.476 7.10538 11.2835 6.95972 12.1261 6.95972C12.9731 6.95972 13.7851 7.10648 14.5362 7.37536C14.5468 7.37919 14.5552 7.38248 14.5641 7.38686ZM7.44171 8.73126C7.62561 8.59436 7.88195 8.57081 8.09427 8.69129C8.20572 8.75426 8.28819 8.84791 8.33723 8.95524L10.2904 12.2979C10.3495 12.3861 10.3573 12.5038 10.2999 12.6018C10.2409 12.7026 10.13 12.7546 10.0202 12.7459L6.0987 12.7552C5.98279 12.7656 5.86242 12.742 5.75431 12.6801C5.54924 12.5635 5.44224 12.3456 5.46063 12.1287C5.45896 12.1134 5.46007 12.0942 5.46453 12.0717C5.57821 11.4453 5.80224 10.8276 6.14495 10.2443C6.48934 9.65838 6.92401 9.15676 7.42276 8.74495C7.42889 8.73948 7.43502 8.73565 7.44171 8.73126ZM16.8099 8.73126C16.6266 8.59436 16.3697 8.57081 16.1579 8.69129C16.0464 8.75426 15.9634 8.84791 15.9144 8.95524L13.9623 12.2979C13.9021 12.3861 13.8948 12.5038 13.9522 12.6018C14.0113 12.7026 14.1216 12.7546 14.232 12.7459L18.1535 12.7552C18.2694 12.7656 18.3897 12.742 18.4984 12.6801C18.7024 12.5635 18.8099 12.3456 18.7915 12.1287C18.7932 12.1134 18.7921 12.0942 18.7876 12.0717C18.6739 11.4453 18.4505 10.8276 18.1072 10.2443C17.7634 9.65838 17.3276 9.15676 16.8294 8.74495C16.8227 8.73948 16.8166 8.73565 16.8099 8.73126ZM12.7073 13.8997V17.468H11.5454V13.8997C10.9898 13.8991 10.2648 13.897 9.9912 13.8876L6.13659 13.8975C5.81004 13.9134 5.47456 13.8406 5.17253 13.6686C4.58628 13.3367 4.27199 12.7229 4.29706 12.1062C4.29818 12.0148 4.30821 11.9348 4.31935 11.8713C4.45644 11.1167 4.72671 10.373 5.13853 9.67317C5.55091 8.97057 6.07474 8.366 6.67547 7.87041C7.07837 7.57798 7.64232 7.43122 8.16225 7.52103C8.30881 7.0331 8.6532 6.63114 9.1018 6.40114C9.18595 6.3535 9.26619 6.32064 9.33195 6.2971C10.2057 5.98714 11.1475 5.81738 12.1266 5.81738C13.1113 5.81738 14.057 5.98824 14.9341 6.30148C15.439 6.51834 15.8898 6.96903 16.0788 7.50679C16.5747 7.39507 17.0874 7.5035 17.4909 7.80524C18.0916 8.30084 18.7018 8.97057 19.1142 9.67317C19.5254 10.3725 19.7963 11.1167 19.9328 11.8713C19.9445 11.9348 19.9551 12.0148 19.9557 12.1062C19.9807 12.7229 19.6659 13.3362 19.0802 13.6686C18.7781 13.84 18.4427 13.9134 18.1161 13.8975L14.2615 13.8876C13.9868 13.897 13.2623 13.8991 12.7073 13.8997Z" fill="#BE1F24"/>
<path d="M22.9624 11.5C22.9624 17.2608 18.085 22 11.9812 22C5.87742 22 1 17.2608 1 11.5C1 5.73925 5.87742 1 11.9812 1C18.085 1 22.9624 5.73925 22.9624 11.5Z" stroke="#BE1F24" stroke-width="2"/>
</svg>
