<svg width="39" height="37" viewBox="0 0 39 37" fill="none" xmlns="http://www.w3.org/2000/svg">
<path fill-rule="evenodd" clip-rule="evenodd" d="M17.0336 23.4403C17.0336 23.1727 17.0247 22.9671 17.0353 22.7622C17.0695 22.0982 17.3613 21.5641 17.9434 21.2489C18.2215 21.0982 18.2704 20.926 18.27 20.6481C18.2631 16.5501 18.2653 12.4519 18.2653 8.35384C18.2653 7.69936 18.4673 7.3972 18.8968 7.40799C19.3123 7.41858 19.4987 7.7083 19.4987 8.34551C19.4988 12.4565 19.5017 16.5674 19.4922 20.6785C19.4915 20.9549 19.5629 21.0985 19.8155 21.2401C20.3913 21.5631 20.692 22.0898 20.7282 22.754C20.7398 22.9687 20.73 23.1844 20.73 23.4402C20.9154 23.4402 21.0657 23.4402 21.216 23.4402C25.6995 23.4402 30.1831 23.4399 34.6665 23.4404C36.7218 23.4408 38.0001 24.7237 38.0008 26.7861C38.0015 28.6746 38.0017 30.5631 38.0007 32.4516C37.9997 34.486 36.7226 35.7642 34.6824 35.775C34.5695 35.7757 34.4565 35.7751 34.3205 35.7751C34.2548 36.2833 34.4658 36.9471 33.6655 36.9983C33.2376 37.0256 33.1014 36.7356 33.0527 35.8049C24.0311 35.8049 15.0078 35.8049 5.94486 35.8049C5.88381 36.28 6.09543 37.0176 5.27261 36.9842C4.54033 36.9544 4.73571 36.2813 4.68371 35.8098C4.27528 35.7759 3.87692 35.7753 3.4913 35.7049C2.07578 35.4471 1.01771 34.217 1.00383 32.7782C0.983688 30.6715 0.982764 28.5643 1.00311 26.4577C1.01904 24.8106 2.35872 23.4796 4.00374 23.4451C4.82564 23.4279 5.64815 23.4362 6.47025 23.4426C6.89225 23.4458 7.16121 23.696 7.16039 24.0579C7.15967 24.4193 6.8904 24.6678 6.46799 24.6716C5.69718 24.6786 4.92636 24.6697 4.15554 24.6749C3.02614 24.6822 2.23488 25.4638 2.23159 26.5874C2.22573 28.5915 2.22676 30.5957 2.23118 32.5997C2.23364 33.7516 3.01669 34.5399 4.16664 34.5402C14.3927 34.5424 24.6187 34.5426 34.8448 34.5399C35.9727 34.5396 36.7619 33.7497 36.7655 32.6234C36.7717 30.6322 36.7698 28.6409 36.7664 26.6497C36.7643 25.4462 35.9926 24.6749 34.7879 24.6746C27.4138 24.673 20.0398 24.6737 12.6657 24.6737C11.7535 24.6737 10.8414 24.674 9.92926 24.6736C9.30788 24.6735 9.00994 24.4683 9.01723 24.0466C9.02432 23.6363 9.3123 23.4404 9.91097 23.4403C12.1335 23.4401 14.356 23.4402 16.5785 23.4402C16.7167 23.4403 16.8548 23.4403 17.0336 23.4403ZM19.4897 23.4229C19.479 23.0023 19.6375 22.5442 19.1777 22.3088C19.0096 22.2227 18.7067 22.2366 18.5439 22.335C18.1282 22.5865 18.2857 23.0234 18.2756 23.4229C18.6827 23.4229 19.0616 23.4229 19.4897 23.4229Z" fill="#D81E05"/>
<path fill-rule="evenodd" clip-rule="evenodd" d="M5.92578 9.12332C5.98549 5.83903 7.18396 2.82637 9.61049 0.324714C9.77328 0.156882 10.0836 0.0170044 10.3039 0.0432121C10.8036 0.102719 10.9012 0.686483 10.5414 1.12297C10.0037 1.77529 9.42539 2.4052 8.9705 3.1128C6.12136 7.54633 6.69218 13.4764 10.3062 17.3152C10.403 17.4181 10.5044 17.5172 10.594 17.626C10.8484 17.9347 10.836 18.2798 10.568 18.5181C10.3211 18.7378 9.94749 18.7424 9.70668 18.4634C9.14594 17.8136 8.56166 17.1743 8.08242 16.4661C6.62527 14.3132 5.94531 11.9107 5.92578 9.12332Z" fill="#D81E05"/>
<path fill-rule="evenodd" clip-rule="evenodd" d="M31.7775 9.76246C31.7279 12.852 30.5159 15.8702 28.0927 18.394C27.7991 18.6999 27.4717 18.7586 27.2048 18.5574C26.9433 18.3602 26.8843 18.09 27.0126 17.8037C27.078 17.6578 27.2112 17.539 27.3247 17.4183C29.0307 15.6074 30.099 13.4722 30.4224 11.0103C30.9066 7.32391 29.89 4.07981 27.3762 1.32121C27.3072 1.24526 27.2325 1.17445 27.1644 1.09747C26.8872 0.782874 26.8806 0.419564 27.1457 0.174136C27.4156 -0.0760195 27.7766 -0.0658458 28.0586 0.264577C28.6156 0.917509 29.1977 1.55955 29.6709 2.27168C31.093 4.41198 31.7721 6.78917 31.7775 9.76246Z" fill="#D81E05"/>
<path fill-rule="evenodd" clip-rule="evenodd" d="M9.01172 9.31383C9.06825 6.69891 9.95797 4.40013 11.795 2.48625C12.1394 2.12736 12.4835 2.08717 12.7669 2.3621C13.0389 2.62592 13.0059 2.98409 12.6769 3.34216C9.43104 6.87466 9.43371 11.8299 12.6833 15.3441C13.0081 15.6954 13.0377 16.0638 12.7621 16.3248C12.4791 16.5927 12.1279 16.5495 11.7883 16.1929C9.96075 14.2737 9.06311 11.9778 9.01172 9.31383Z" fill="#D81E05"/>
<path fill-rule="evenodd" clip-rule="evenodd" d="M28.6965 9.55931C28.6641 11.9824 27.7608 14.2774 25.9235 16.1844C25.7629 16.351 25.4479 16.4831 25.2277 16.4543C24.7562 16.3927 24.6302 15.825 24.9591 15.43C25.2789 15.046 25.627 14.6815 25.9136 14.274C28.2506 10.9502 27.9121 6.37903 25.1227 3.42608C25.0698 3.37007 25.0134 3.31724 24.9634 3.25887C24.7 2.94993 24.6973 2.61282 24.9543 2.3639C25.21 2.11621 25.5704 2.11385 25.8436 2.40614C26.1932 2.78024 26.5368 3.16555 26.8366 3.57973C28.0779 5.29536 28.6836 7.2221 28.6965 9.55931Z" fill="#D81E05"/>
<path fill-rule="evenodd" clip-rule="evenodd" d="M14.3936 4.37683C14.9925 4.37868 15.279 4.86748 15.0488 5.28259C14.9938 5.38167 14.9109 5.46676 14.8331 5.55124C12.8418 7.71107 12.8301 10.9376 14.8046 13.1043C14.9074 13.2172 15.0296 13.3315 15.0807 13.4683C15.1892 13.7592 15.1322 14.0337 14.8528 14.2104C14.5622 14.394 14.2864 14.3362 14.0516 14.0977C13.2529 13.2873 12.6757 12.3398 12.3788 11.2408C11.7188 8.79833 12.2392 6.62268 13.9182 4.73171C14.0694 4.56131 14.2901 4.45247 14.3936 4.37683Z" fill="#D81E05"/>
<path fill-rule="evenodd" clip-rule="evenodd" d="M25.6153 9.77299C25.6016 11.1625 24.9721 12.7311 23.7188 14.0451C23.3821 14.3982 22.9802 14.4044 22.7211 14.0796C22.504 13.8076 22.5365 13.5112 22.8393 13.1883C23.5959 12.3813 24.1045 11.447 24.2899 10.3517C24.5886 8.58696 24.1617 7.01882 22.9881 5.66043C22.8958 5.55355 22.7898 5.45684 22.7092 5.34204C22.5111 5.05971 22.5334 4.77718 22.7815 4.54337C23.0297 4.30935 23.3364 4.29198 23.5822 4.5188C23.8631 4.77811 24.1179 5.07451 24.3423 5.385C25.1954 6.56465 25.6193 7.88881 25.6153 9.77299Z" fill="#D81E05"/>
<path fill-rule="evenodd" clip-rule="evenodd" d="M8.38186 30.8412C7.80374 30.8412 7.22573 30.8457 6.64773 30.8397C6.20219 30.8351 5.92398 30.583 5.93385 30.2088C5.9433 29.8484 6.21165 29.6115 6.64022 29.6097C7.80919 29.6048 8.97806 29.605 10.147 29.6095C10.5936 29.6114 10.8712 29.8648 10.8613 30.2397C10.8519 30.6 10.5831 30.8351 10.1546 30.8396C9.56377 30.8458 8.97281 30.8412 8.38186 30.8412Z" fill="#D81E05"/>
<path fill-rule="evenodd" clip-rule="evenodd" d="M14.5612 30.24C14.5522 30.5736 14.2643 30.8472 13.9316 30.838C13.5973 30.829 13.3253 30.5422 13.3342 30.2083C13.3431 29.8727 13.6283 29.6018 13.9632 29.6107C14.2979 29.6197 14.5702 29.9062 14.5612 30.24Z" fill="#D81E05"/>
<path fill-rule="evenodd" clip-rule="evenodd" d="M17.6639 29.6107C17.9986 29.6194 18.2711 29.9056 18.2624 30.2394C18.2537 30.5731 17.966 30.8469 17.6333 30.838C17.2989 30.8293 17.0267 30.543 17.0354 30.2088C17.0442 29.8733 17.3291 29.602 17.6639 29.6107Z" fill="#D81E05"/>
<path fill-rule="evenodd" clip-rule="evenodd" d="M21.3488 29.6107C21.6836 29.6115 21.962 29.891 21.9613 30.2254C21.9605 30.5593 21.6798 30.839 21.3462 30.8381C21.0118 30.8372 20.7336 30.5576 20.7344 30.2228C20.7351 29.8873 21.0134 29.61 21.3488 29.6107Z" fill="#D81E05"/>
<path fill-rule="evenodd" clip-rule="evenodd" d="M25.0304 30.8381C24.696 30.8274 24.4253 30.5395 24.4358 30.2056C24.4464 29.8701 24.7331 29.6002 25.0676 29.6108C25.4021 29.6214 25.6734 29.9093 25.6627 30.2427C25.6521 30.5762 25.3627 30.8488 25.0304 30.8381Z" fill="#D81E05"/>
<path fill-rule="evenodd" clip-rule="evenodd" d="M28.7536 30.8382C28.4196 30.8404 28.1389 30.5624 28.1367 30.2278C28.1346 29.8925 28.4107 29.6131 28.7464 29.6109C29.0809 29.6087 29.3615 29.8859 29.3638 30.2207C29.3658 30.5542 29.0874 30.836 28.7536 30.8382Z" fill="#D81E05"/>
<path fill-rule="evenodd" clip-rule="evenodd" d="M33.0631 30.2094C33.0716 30.5421 32.7977 30.8297 32.4642 30.8381C32.1304 30.8467 31.8446 30.5739 31.8361 30.2391C31.8278 29.9041 32.0991 29.6193 32.4344 29.6108C32.7684 29.6023 33.0544 29.8748 33.0631 30.2094Z" fill="#D81E05"/>
</svg>
