<svg width="35" height="35" viewBox="0 0 35 35" fill="none" xmlns="http://www.w3.org/2000/svg">
<path fill-rule="evenodd" clip-rule="evenodd" d="M17.1735 0.000351929C25.9028 0.00640188 33.1112 5.88015 34.6584 14.1576C35.7676 20.0915 34.1641 25.3118 30.0141 29.7262C29.7278 30.0304 29.4168 30.2015 29.0136 29.9697C28.573 29.7158 28.55 29.2046 28.9713 28.7698C30.209 27.4928 31.2168 26.0589 31.996 24.459C36.6665 14.87 30.5944 3.23707 20.0702 1.61972C11.4529 0.295286 3.59238 5.71982 1.74248 14.2679C-0.101364 22.7882 5.57843 31.4646 14.1387 33.2075C18.4437 34.0841 22.4577 33.3622 26.1838 31.0336C26.3549 30.9267 26.5426 30.8073 26.7344 30.781C27.0829 30.7332 27.3454 30.9093 27.4679 31.2456C27.6023 31.6146 27.4577 31.9153 27.1437 32.0938C26.2832 32.583 25.4344 33.1066 24.5324 33.5069C14.3079 38.0456 2.38681 31.7878 0.312764 20.8092C-1.28903 12.3305 3.38588 4.06138 11.4923 1.05229C13.4295 0.333477 15.4376 -0.0126303 17.1735 0.000351929Z" fill="#D81E05"/>
<path fill-rule="evenodd" clip-rule="evenodd" d="M17.5182 3.83446C24.294 3.90643 29.8944 8.70467 30.9966 15.3819C32.1931 22.6306 27.0874 29.7561 19.8515 30.9358C12.4817 32.1374 5.67404 27.5731 4.15356 20.2663C3.16721 15.5262 4.46607 11.359 7.83167 7.85755C8.22928 7.44389 8.6192 7.40406 8.94609 7.71374C9.28143 8.03149 9.24512 8.43343 8.8233 8.86323C7.03001 10.6908 5.91785 12.8606 5.43893 15.3794C4.21508 21.8171 8.78763 28.4241 15.247 29.5151C21.8997 30.6386 27.926 26.6502 29.4479 20.1156C31.0328 13.3102 26.2241 6.34683 19.2906 5.39283C16.581 5.02 14.0271 5.47135 11.6177 6.76214C11.4397 6.85755 11.2473 6.96619 11.0539 6.98321C10.703 7.01396 10.442 6.82465 10.3423 6.48447C10.2351 6.11908 10.3729 5.80347 10.7116 5.65525C11.7603 5.19621 12.7931 4.66419 13.8873 4.35665C15.0584 4.02768 16.2922 3.92181 17.4987 3.71851C17.5052 3.75733 17.5118 3.79602 17.5182 3.83446Z" fill="#D81E05"/>
<path fill-rule="evenodd" clip-rule="evenodd" d="M14.079 19.3913C14.079 19.1957 14.079 19.0278 14.079 18.8598C14.079 17.1273 14.0768 15.3949 14.0801 13.6623C14.0819 12.691 14.5166 12.191 15.4775 12.0212C17.5224 11.6596 19.5668 11.2942 21.6109 10.9285C22.5627 10.7582 23.1761 11.2601 23.179 12.2324C23.1843 14.0908 23.1809 15.9492 23.1805 17.8077C23.1803 19.3604 22.1615 20.5326 20.6026 20.7122C20.1751 20.7615 19.7101 20.7482 19.2993 20.6323C18.02 20.2713 17.5282 18.982 18.2416 17.8579C18.9466 16.7472 20.0106 16.2996 21.3076 16.3715C21.4441 16.379 21.5802 16.3954 21.7403 16.4099C21.7403 15.9081 21.7403 15.426 21.7403 14.8948C19.657 15.2647 17.6018 15.6293 15.4972 16.0029C15.4972 16.1843 15.4972 16.3539 15.4972 16.5233C15.497 18.0039 15.4938 19.4844 15.4982 20.9648C15.5015 22.0662 14.9266 22.8089 14.0061 23.3011C13.0545 23.8096 12.0593 23.9485 11.0802 23.3705C10.2224 22.8643 9.98543 21.8623 10.4655 20.9369C11.0228 19.8628 12.4478 19.1558 13.7 19.3328C13.807 19.3478 13.9136 19.3657 14.079 19.3913ZM21.7454 12.3501C19.6397 12.724 17.5871 13.0882 15.5211 13.4551C15.5211 13.8276 15.5211 14.1669 15.5211 14.5553C17.616 14.1835 19.6787 13.8175 21.7454 13.4506C21.7454 13.0697 21.7454 12.7439 21.7454 12.3501ZM13.2716 20.5866C12.7954 20.8421 12.341 21.0366 11.9499 21.3193C11.7833 21.4397 11.6172 21.8123 11.6874 21.948C11.7821 22.1309 12.1298 22.3235 12.3252 22.2855C12.7988 22.1939 13.2765 22.0219 13.6928 21.7795C13.8842 21.6681 14.0778 21.2632 14.0126 21.0864C13.9366 20.8804 13.5786 20.7783 13.2716 20.5866ZM20.0894 19.4253C20.6743 19.3198 21.1577 19.1368 21.5062 18.7211C21.6415 18.5599 21.7692 18.2635 21.7077 18.1025C21.6478 17.9465 21.349 17.8232 21.1403 17.7946C20.5998 17.7205 20.0952 17.8929 19.7234 18.2822C19.5421 18.4721 19.3709 18.8155 19.4222 19.0368C19.462 19.2086 19.854 19.2989 20.0894 19.4253Z" fill="#D81E05"/>
</svg>
