<svg width="33" height="33" viewBox="0 0 33 33" fill="none" xmlns="http://www.w3.org/2000/svg">
<path fill-rule="evenodd" clip-rule="evenodd" d="M17.6718 0C18.537 0.144738 19.41 0.254838 20.2662 0.441636C21.9988 0.819769 23.615 1.50195 25.1246 2.4325C25.568 2.70562 25.6692 3.10135 25.404 3.44457C25.188 3.72401 24.86 3.75769 24.4735 3.55591C23.7968 3.20279 23.1141 2.86108 22.4385 2.50604C22.1967 2.3789 22.01 2.39127 21.7754 2.56501C20.326 3.63824 18.858 4.68645 17.4092 5.76037C17.2767 5.85865 17.1658 6.07872 17.1629 6.24435C17.1422 7.42754 17.142 8.6117 17.1632 9.79489C17.1661 9.95983 17.2813 10.1781 17.4146 10.2768C19.0386 11.4776 20.6728 12.665 22.3155 13.8405C22.44 13.9295 22.6717 13.9658 22.8154 13.916C23.904 13.538 24.9862 13.1399 26.0616 12.7261C26.209 12.6694 26.3723 12.511 26.4216 12.3636C27.0083 10.6152 27.5801 8.86172 28.1358 7.10315C28.1803 6.9624 28.1295 6.72791 28.0319 6.61643C27.6332 6.16105 27.2034 5.73261 26.7769 5.30238C26.4151 4.93758 26.3585 4.57457 26.6347 4.27863C26.9108 3.98283 27.2896 4.00153 27.6609 4.3497C30.5445 7.05216 32.2881 10.3524 32.8401 14.271C33.8768 21.629 29.7842 28.6516 23.133 31.6165C16.7227 34.4743 8.89114 32.795 4.22255 27.5098C1.7961 24.7624 0.390091 21.5747 0.0688638 17.9162C0.0615788 17.8333 0.0236419 17.7531 0 17.6716C0 16.892 0 16.1124 0 15.3327C0.0266659 15.1925 0.0652899 15.0536 0.0786228 14.9121C0.220612 13.4113 0.562319 11.9577 1.11186 10.554C1.28656 10.1079 1.60724 9.93166 1.98125 10.0632C2.33945 10.1892 2.47484 10.5575 2.33065 10.9988C2.14715 11.5595 1.92049 12.1114 1.79665 12.6852C1.58043 13.6881 1.42827 14.7047 1.24931 15.7157C1.29687 15.7357 1.34429 15.7555 1.39171 15.7755C2.71524 14.8148 4.0385 13.854 5.37276 12.8852C4.85868 11.3084 4.35368 9.75943 3.82889 8.14944C3.67095 8.36098 3.5823 8.51273 3.46244 8.63314C3.21846 8.87822 2.92527 8.92303 2.63951 8.72235C2.36172 8.52716 2.26811 8.25171 2.41876 7.92581C2.46082 7.83481 2.51429 7.74836 2.56913 7.66423C5.01923 3.90559 8.41363 1.47294 12.7839 0.435038C13.6209 0.236419 14.4826 0.142401 15.3329 0.000274755C16.1124 -1.51023e-07 16.892 0 17.6718 0ZM28.3182 25.9661C26.9192 25.9661 25.5774 25.9675 24.2354 25.9655C23.2209 25.9639 23.2207 25.9621 22.8761 26.8834C22.8661 26.9102 22.8618 26.9395 22.8503 26.9659C22.6915 27.331 22.3505 27.4918 22.0047 27.3656C21.6861 27.2496 21.5242 26.9181 21.6267 26.5525C21.72 26.2198 21.8584 25.8976 21.9268 25.5605C21.9613 25.39 21.9443 25.1535 21.8485 25.0211C21.2641 24.2152 20.6593 23.4236 20.0377 22.646C19.9315 22.5133 19.7124 22.3996 19.5443 22.3981C17.5233 22.3813 15.5023 22.3803 13.4814 22.3989C13.3014 22.4006 13.0668 22.5218 12.9531 22.6639C12.2953 23.4866 11.6737 24.3378 11.0221 25.1653C10.858 25.3737 10.8432 25.5506 10.9231 25.7919C11.4795 27.4746 12.0299 29.1595 12.5643 30.8495C12.6543 31.134 12.7993 31.261 13.0885 31.325C15.321 31.8187 17.5529 31.8421 19.7829 31.3331C19.9362 31.2984 20.1128 31.1182 20.1724 30.9644C20.3757 30.4414 20.5286 29.8989 20.7059 29.3657C20.8642 28.8889 21.1943 28.6703 21.5628 28.7899C21.9465 28.9142 22.089 29.2699 21.9435 29.7484C21.845 30.0732 21.7427 30.397 21.6359 30.7417C23.42 30.4567 27.2913 27.6946 28.3182 25.9661ZM15.8212 8.03481C15.8317 8.03481 15.8421 8.03481 15.8526 8.03467C15.8526 7.4428 15.8733 6.84996 15.8401 6.26002C15.8299 6.08036 15.7153 5.84931 15.5729 5.74347C14.1365 4.67738 12.6804 3.63824 11.2412 2.576C11.0148 2.40886 10.8394 2.38467 10.5796 2.49559C8.39108 3.43 6.52338 4.79889 4.98253 6.60846C4.8793 6.72969 4.82886 6.98096 4.87683 7.13284C5.42252 8.86406 5.98525 10.5899 6.56612 12.3096C6.62358 12.4799 6.8046 12.6667 6.97271 12.7323C8.01927 13.1404 9.08192 13.5072 10.1311 13.9093C10.3818 14.0052 10.5503 13.9605 10.7557 13.8089C11.8928 12.9691 13.0413 12.1442 14.1839 11.3118C14.7318 10.9128 15.4948 10.616 15.7605 10.0764C16.0342 9.5204 15.8212 8.72523 15.8212 8.03481ZM26.2417 24.6596C26.2417 24.6655 26.2417 24.6714 26.2417 24.6776C27.1358 24.6776 28.0302 24.6629 28.9237 24.6857C29.2282 24.6935 29.3871 24.5801 29.5346 24.3308C30.7424 22.2884 31.4713 20.0942 31.6356 17.7237C31.6466 17.5662 31.5325 17.3384 31.403 17.2426C29.9559 16.1697 28.4987 15.1102 27.0294 14.0675C26.8874 13.9666 26.6235 13.9295 26.4584 13.9861C25.3969 14.3506 24.3507 14.7593 23.2911 15.13C23.0422 15.2173 22.93 15.3525 22.8528 15.5951C22.2485 17.4873 21.6337 19.3762 21.0104 21.262C20.9306 21.5034 20.9367 21.6807 21.1022 21.8907C21.7534 22.7172 22.3746 23.5675 23.032 24.3887C23.1447 24.5296 23.3787 24.6424 23.5604 24.6475C24.4533 24.6737 25.3477 24.6596 26.2417 24.6596ZM6.73148 24.6775C7.64032 24.6775 8.54929 24.6874 9.45758 24.6678C9.61703 24.6644 9.82788 24.5788 9.92341 24.4585C10.6041 23.5997 11.2685 22.7278 11.9172 21.8447C12.0091 21.7195 12.0557 21.4899 12.0097 21.3444C11.3928 19.3951 10.7597 17.4512 10.1149 15.5109C10.0691 15.373 9.92162 15.2204 9.78554 15.1686C8.68248 14.748 7.57269 14.344 6.4585 13.9537C6.3385 13.9116 6.14373 13.9446 6.03872 14.0196C4.53814 15.0938 3.04417 16.1775 1.55954 17.2736C1.44834 17.3556 1.35281 17.5536 1.3623 17.6898C1.53219 20.1056 2.26371 22.3456 3.53611 24.4042C3.6201 24.54 3.84359 24.6608 4.00551 24.6654C4.91366 24.6904 5.82278 24.6775 6.73148 24.6775ZM16.5018 11.235C14.8242 12.4541 13.1652 13.654 11.5195 14.8718C11.4302 14.9378 11.3922 15.1737 11.4318 15.2986C12.009 17.1254 12.6087 18.9451 13.1875 20.7716C13.2698 21.0311 13.4051 21.093 13.6547 21.0919C15.5597 21.0839 17.4646 21.0821 19.3697 21.0937C19.6382 21.0953 19.7452 20.9926 19.8219 20.7519C20.4041 18.9267 20.9929 17.1033 21.5943 15.2842C21.6678 15.0621 21.6278 14.9451 21.4461 14.8174C20.903 14.4365 20.3701 14.0407 19.8331 13.6511C18.7258 12.8479 17.6184 12.045 16.5018 11.235ZM16.5031 4.79752C17.8465 3.82105 19.1697 2.85929 20.5568 1.85094C17.8234 1.1234 15.1822 1.11625 12.4525 1.85506C13.8433 2.86548 15.1667 3.82682 16.5031 4.79752ZM29.1803 8.12099C28.6626 9.71833 28.1781 11.1943 27.7178 12.6778C27.6855 12.782 27.7965 12.9901 27.9018 13.0681C29.0606 13.9275 30.231 14.7715 31.3999 15.6174C31.476 15.6725 31.5652 15.7095 31.6854 15.7749C31.5282 13.0079 30.7195 10.5084 29.1803 8.12099ZM11.1698 30.7372C10.6545 29.1481 10.1814 27.6679 9.68314 26.1962C9.64754 26.0912 9.42872 25.9886 9.29346 25.9866C8.22587 25.9694 7.15799 25.9769 6.09012 25.9769C5.63529 25.9769 5.1806 25.9769 4.62378 25.9769C6.4141 28.1638 8.53087 29.7107 11.1698 30.7372Z" fill="#D81E05"/>
</svg>
